<?xml version="1.0" encoding="UTF-8" standalone="no"?>
<!-- Created with Inkscape (http://www.inkscape.org/) -->

<svg
   version="1.1"
   id="svg1"
   width="3468.4451"
   height="1157.9915"
   viewBox="0 0 3468.4451 1157.9915"
   sodipodi:docname="JepTech-v1.2-v3.svg"
   inkscape:version="1.4.2 (f4327f4, 2025-05-13)"
   xmlns:inkscape="http://www.inkscape.org/namespaces/inkscape"
   xmlns:sodipodi="http://sodipodi.sourceforge.net/DTD/sodipodi-0.dtd"
   xmlns="http://www.w3.org/2000/svg"
   xmlns:svg="http://www.w3.org/2000/svg">
  <defs
     id="defs1" />
  <sodipodi:namedview
     id="namedview1"
     pagecolor="#ffffff"
     bordercolor="#000000"
     borderopacity="0.25"
     inkscape:showpageshadow="2"
     inkscape:pageopacity="0.0"
     inkscape:pagecheckerboard="0"
     inkscape:deskcolor="#d1d1d1"
     inkscape:zoom="0.24625"
     inkscape:cx="1701.5228"
     inkscape:cy="2.0304569"
     inkscape:window-width="1920"
     inkscape:window-height="991"
     inkscape:window-x="-9"
     inkscape:window-y="-9"
     inkscape:window-maximized="1"
     inkscape:current-layer="g1" />
  <g
     inkscape:groupmode="layer"
     inkscape:label="Image"
     id="g1"
     transform="translate(-74.21117,-81.577692)">
    <g
       id="g24"
       transform="matrix(1.0407177,0,0,1.0407177,-33.630927,-127.84612)">
      <path
         style="fill:#ef8a3f"
         d="m 400.01401,1313.9042 c -15.4,-0.083 -29.575,-0.3132 -31.5,-0.5105 -1.925,-0.1974 -8.225,-1.0529 -14,-1.9012 -5.775,-0.8482 -15.55653,-2.8459 -21.73672,-4.4393 -6.1802,-1.5933 -19.2302,-5.8785 -29,-9.5227 -9.76981,-3.6442 -24.51328,-10.1125 -32.76328,-14.374 -8.25,-4.2615 -19.14916,-10.3177 -24.22035,-13.4583 -5.07119,-3.1406 -12.94619,-8.4616 -17.5,-11.8245 -4.55381,-3.3628 -12.32965,-9.5958 -17.27965,-13.8509 -4.95,-4.2551 -14.63633,-13.5221 -21.52517,-20.5934 -6.88884,-7.0713 -16.60876,-18.2569 -21.59982,-24.8569 -4.99107,-6.6 -13.01758,-17.85 -17.8367,-25 -4.81912,-7.15 -12.52192,-20.503 -17.11735,-29.6733 -4.97707,-9.932 -10.61366,-23.2278 -13.94083,-32.8844 -3.07203,-8.916 -6.71261,-20.9811 -8.09019,-26.8112 -1.37757,-5.8301 -3.40556,-16.2322 -4.50664,-23.1157 -1.43986,-9.0014 -2.31492,-21.9891 -3.11657,-46.2562 -0.93777,-28.388 -0.89498,-34.15107 0.26975,-36.3274 0.7614,-1.42267 2.30217,-3.11434 3.42394,-3.75925 1.51867,-0.8731 25.15305,-1.17257 92.53958,-1.17257 89.43766,0 90.54108,0.0241 94,2.05045 1.925,1.12775 4.04631,3.18026 4.71403,4.56112 0.75069,1.55244 1.62322,12.21968 2.28615,27.94955 0.81493,19.3366 1.57556,27.5978 3.17088,34.4389 1.39921,6.0001 4.04597,12.8331 7.94069,20.5 3.79773,7.4759 8.03701,14.02 12.11508,18.7018 3.45024,3.961 9.18318,9.7146 12.73986,12.7857 4.17326,3.6035 10.73435,7.6755 18.5,11.4816 6.61832,3.2438 16.08331,7.0149 21.03331,8.3802 6.99773,1.93 12.44835,2.6156 24.5,3.0815 12.93895,0.5002 17.16156,0.2802 25.55612,-1.3316 5.53087,-1.0619 13.87935,-3.4487 18.55217,-5.304 4.67282,-1.8552 12.13234,-5.505 16.5767,-8.1105 5.58228,-3.2727 10.66764,-7.4424 16.44784,-13.4864 5.46973,-5.7194 10.55045,-12.4123 14.67201,-19.3276 3.74513,-6.2838 7.90654,-15.1257 10.25,-21.7787 l 3.94516,-11.2002 v -61.39514 c 0,-57.38371 -0.13138,-62.07595 -2.01079,-71.81483 -1.10594,-5.73082 -3.5429,-15.99116 -5.41547,-22.80076 -1.87257,-6.8096 -4.96953,-16.07817 -6.88212,-20.59681 -1.91259,-4.51865 -5.8493,-12.16865 -8.74823,-17 -2.89894,-4.83136 -7.7465,-12.15928 -10.77235,-16.28428 -3.02585,-4.125 -10.10607,-12.9 -15.73381,-19.5 -5.62774,-6.6 -27.49087,-29.17609 -48.58474,-50.16909 -23.75108,-23.63751 -39.3456,-38.41801 -40.96101,-38.8229 -1.43468,-0.35959 -5.94241,-0.1901 -10.01717,0.37665 -4.87262,0.67771 -9.72106,0.70297 -14.16395,0.0738 -3.7154,-0.52617 -9.25727,-1.83604 -12.31525,-2.91084 -3.05799,-1.07479 -7.66038,-3.17315 -10.22754,-4.663 -2.56717,-1.48986 -7.59257,-5.67587 -11.16757,-9.30225 -3.575,-3.62639 -7.94847,-9.32759 -9.71881,-12.66934 -1.77034,-3.34176 -3.91959,-8.73927 -4.77611,-11.99447 -0.85651,-3.2552 -1.57007,-9.78441 -1.58567,-14.50935 -0.0156,-4.72495 0.50053,-10.79995 1.14697,-13.5 0.64645,-2.70006 2.74872,-8.24623 4.67173,-12.32482 2.56649,-5.44339 5.40171,-9.32097 10.6604,-14.57966 4.70424,-4.70424 9.40065,-8.26511 13.6781,-10.37089 3.58274,-1.76378 8.96867,-3.86009 11.96873,-4.65848 3.00006,-0.79838 9.50466,-1.4516 14.45466,-1.4516 4.95,0 11.45459,0.65322 14.45465,1.4516 3.00007,0.79839 8.38599,2.8947 11.96873,4.65848 4.27745,2.10578 8.97387,5.66665 13.6781,10.37089 5.25869,5.25869 8.09392,9.13627 10.6604,14.57966 1.92301,4.07859 4.00604,9.54832 4.62896,12.15495 0.62291,2.60662 1.17488,7.55933 1.22659,11.00602 0.0517,3.4467 -0.22247,9.22193 -0.60927,12.83386 l -0.70328,6.56714 11.84756,12.46034 c 6.51616,6.85319 15.22256,16.04687 19.34756,20.43041 4.125,4.38354 14.6073,14.23589 23.29401,21.89411 8.68671,7.65822 22.13201,20.67561 29.87844,28.92752 7.74643,8.25192 17.40099,18.98831 21.45458,23.85866 4.05359,4.87034 10.03349,12.8161 13.28866,17.65724 3.25518,4.84114 8.69139,14.61231 12.08047,21.71372 3.38909,7.10141 7.72726,17.18666 9.64038,22.41166 1.91313,5.225 5.01056,15.35 6.88319,22.5 1.87263,7.15 4.57841,19.975 6.01286,28.5 2.23617,13.28964 2.78972,21.03847 3.88177,54.33815 1.03459,31.54759 1.03281,43.09216 -0.009,61.49995 -1.1311,19.9763 -1.6896,24.2657 -4.7129,36.1955 -1.88635,7.4435 -4.88764,16.8935 -6.66953,21 -1.78189,4.1065 -5.06966,10.8414 -7.30616,14.9664 -2.23651,4.125 -6.19174,10.65 -8.78941,14.5 -2.59767,3.85 -7.65121,10.4992 -11.23008,14.776 -3.57887,4.2768 -9.36223,10.0635 -12.85192,12.8593 -3.48969,2.7958 -11.29488,8.3765 -17.34488,12.4014 -6.05,4.025 -16.175,10.0102 -22.5,13.3005 -6.325,3.2903 -15.775,7.33 -21,8.9772 -5.225,1.6472 -14.72918,4.1628 -21.12041,5.5902 -9.63392,2.1517 -14.14346,2.5954 -26.37959,2.5954 -12.22612,0 -16.73351,-0.4428 -26.26278,-2.5801 -6.32697,-1.419 -16.05615,-4.1582 -21.6204,-6.0872 -5.56425,-1.9289 -15.51682,-6.1001 -22.11682,-9.2694 -6.6,-3.1693 -15.6,-8.3592 -20,-11.5331 -4.4,-3.174 -11.69259,-8.8725 -16.20576,-12.6634 -4.51317,-3.7909 -11.09342,-10.5992 -14.62277,-15.1297 -3.52935,-4.5304 -8.89545,-12.0621 -11.92465,-16.7371 -3.0292,-4.675 -7.32901,-12.138 -9.55514,-16.5844 -2.22612,-4.4465 -5.59852,-12.5465 -7.49422,-18 -1.8957,-5.4536 -4.46649,-14.4156 -5.71288,-19.9156 -1.24638,-5.5 -2.94754,-10.7875 -3.78035,-11.75 -1.39291,-1.6098 -4.58057,-1.75 -39.79412,-1.75 -21.05395,0 -39.3727,0.4155 -40.70832,0.9233 -1.33562,0.5078 -2.67441,1.864 -2.97509,3.0138 -0.30068,1.1498 0.29855,8.2718 1.33161,15.8267 1.03306,7.5549 3.65963,20.2934 5.83681,28.3078 2.17718,8.0144 5.62949,18.8144 7.6718,24 2.04232,5.1856 6.04438,14.3784 8.89348,20.4284 2.8491,6.05 8.01664,15.725 11.48342,21.5 3.46678,5.775 8.01584,12.801 10.10901,15.6134 2.09316,2.8124 8.59202,10.4624 14.44189,17 5.84988,6.5376 15.8942,16.329 22.32071,21.7585 6.42651,5.4296 18.2965,14.2796 26.37775,19.6667 8.08125,5.3871 18.49046,11.8646 23.13158,14.3945 4.64113,2.5299 12.72398,6.3904 17.96189,8.579 5.23792,2.1886 15.0787,5.5794 21.86842,7.535 6.78971,1.9557 19.31993,4.9952 27.84493,6.7543 l 15.5,3.1986 h 32 32 l 16,-3.8383 c 8.8,-2.1111 22.75,-6.0894 31,-8.8408 9.23889,-3.0811 19.03277,-7.2099 25.5,-10.7499 5.775,-3.1611 14.71668,-8.356 19.8704,-11.5443 5.15372,-3.1882 14.82872,-9.8652 21.5,-14.8377 6.67128,-4.9725 17.21419,-14.0061 23.42869,-20.0746 6.2145,-6.0685 14.96099,-15.6502 19.43664,-21.2926 4.47565,-5.6425 10.7728,-14.2106 13.99367,-19.0404 3.22086,-4.8298 9.60606,-16.2064 14.18932,-25.2814 6.48083,-12.8323 9.3846,-20.0374 13.06312,-32.4134 2.60145,-8.7523 6.21077,-22.5214 8.0207,-30.598 l 3.29078,-14.6846 0.74412,-202.59064 c 0.67218,-183.00728 0.89967,-202.939 2.35334,-206.19453 0.88507,-1.98214 11.73422,-15.04706 24.10922,-29.03314 12.375,-13.98608 23.48692,-25.7093 24.69316,-26.05161 1.20624,-0.3423 2.66874,-0.32845 3.25,0.0308 0.7375,0.4558 1.05211,69.15204 1.0412,227.34415 -0.0151,218.37437 -0.0863,227.18827 -1.94145,240.24657 -1.0592,7.4556 -2.87064,18.2556 -4.02542,24 -1.15479,5.7444 -3.20836,14.5633 -4.56349,19.5975 -1.35513,5.0343 -4.22606,14.2593 -6.37984,20.5 -2.15378,6.2408 -6.34495,16.7548 -9.31372,23.3644 -2.96876,6.6097 -8.24318,16.9597 -11.72092,23 -3.47774,6.0404 -8.58294,14.3575 -11.34489,18.4825 -2.76196,4.125 -9.17417,12.9 -14.24937,19.5 -5.54021,7.2047 -15.96451,18.6092 -26.08645,28.5394 -9.27234,9.0966 -22.25881,20.6089 -28.85881,25.5828 -6.6,4.9738 -16.05,11.748 -21,15.0537 -4.95,3.3057 -13.275,8.2996 -18.5,11.0976 -5.225,2.7979 -15.067,7.6255 -21.87111,10.7279 -6.80411,3.1023 -20.30411,8.2415 -30,11.4202 -12.76379,4.1846 -22.04446,6.5071 -33.62889,8.4156 -8.8,1.4498 -20.05,3.0884 -25,3.6412 -4.95,0.5528 -21.6,0.9368 -37,0.8533 z m 638.37169,-23.9878 c -2.4044,-0.086 -9.5467,-0.4826 -15.8717,-0.8817 -6.325,-0.399 -15.1,-1.4844 -19.5,-2.4119 -4.39999,-0.9275 -12.57716,-3.2065 -18.17148,-5.0643 -5.59432,-1.8579 -13.01932,-4.8131 -16.5,-6.5672 -3.48068,-1.7541 -8.80351,-4.7506 -11.82851,-6.6589 -3.025,-1.9083 -6.9625,-4.8607 -8.75,-6.5609 -2.04648,-1.9466 -3.23829,-4.0371 -3.21839,-5.6452 0.0174,-1.4046 1.70489,-5.7038 3.75,-9.5538 2.71398,-5.1092 4.33222,-7.0871 5.99083,-7.3225 1.56388,-0.2219 3.83086,1.0786 7.27042,4.1711 2.74889,2.4715 9.1513,6.508 14.22756,8.9701 5.07627,2.462 12.82958,5.6748 17.22958,7.1395 4.4,1.4647 11.59999,3.5327 15.99999,4.5954 6.422,1.5512 11.6612,1.9337 26.5617,1.9394 15.5965,0.01 19.8297,-0.325 26.5,-2.0712 4.3661,-1.143 11.0481,-3.7117 14.849,-5.7083 3.8009,-1.9966 8.9759,-5.6994 11.5,-8.2286 2.5241,-2.5291 5.8268,-7.0543 7.3393,-10.056 2.4919,-4.9454 2.75,-6.4684 2.75,-16.2265 0,-9.3852 -0.3084,-11.3775 -2.4002,-15.5055 -1.3201,-2.6051 -4.6267,-6.8191 -7.3479,-9.3645 -2.7316,-2.5551 -8.7335,-6.4604 -13.4,-8.7192 -5.2722,-2.5518 -15.5821,-6.0116 -27.4021,-9.1953 -10.4224,-2.8074 -25.2329,-6.8779 -32.9123,-9.0457 -7.6793,-2.1678 -18.02932,-5.5484 -22.99996,-7.5126 -4.97064,-1.9641 -12.25541,-5.5527 -16.18837,-7.9746 -3.93295,-2.4219 -9.73958,-7.1996 -12.90361,-10.6172 -3.16403,-3.4175 -6.76185,-8.4953 -7.99514,-11.284 -1.2333,-2.7887 -3.18917,-8.1358 -4.34639,-11.8824 -1.42163,-4.6027 -2.10402,-9.5006 -2.10402,-15.1014 0,-5.5598 0.68215,-10.4979 2.07159,-14.9964 1.13937,-3.6888 3.5626,-9.9237 5.38495,-13.8553 2.58598,-5.5791 5.14974,-8.9502 11.67841,-15.3564 7.0027,-6.8712 9.95669,-8.9598 18.138,-12.8244 5.46444,-2.5813 14.87974,-5.9062 21.35664,-7.542 10.9401,-2.763 12.7247,-2.9255 32.1182,-2.9255 20.3564,0 20.6567,0.032 34.6433,3.6336 7.7599,1.9984 17.7089,5.2119 22.1089,7.1409 4.4,1.9291 10.4122,4.865 13.3605,6.5243 5.1661,2.9074 5.3429,3.1471 4.8762,6.609 -0.2663,1.9757 -1.8628,6.6297 -3.5478,10.3422 -1.9038,4.1949 -3.6619,6.75 -4.6443,6.75 -0.8695,0 -6.0162,-2.2258 -11.4371,-4.9461 -5.4209,-2.7203 -13.8502,-6.0863 -18.7318,-7.48 -4.8817,-1.3936 -12.2507,-3.2511 -16.3757,-4.1276 -4.5245,-0.9614 -12.6575,-1.6193 -20.5,-1.6582 -8.7656,-0.043 -15.9315,0.5226 -22,1.7379 -5.3555,1.0726 -12.2395,3.3727 -17,5.6802 -4.69065,2.2736 -9.98257,5.8253 -12.79269,8.5858 -2.63598,2.5894 -6.12348,7.0637 -7.75,9.9428 -2.80661,4.9681 -2.9573,5.8273 -2.9573,16.8601 0,11.051 0.15027,11.9036 3.04301,17.2651 2.05437,3.8076 5.03237,7.2051 9.16621,10.4574 3.36775,2.6495 8.2171,5.8784 10.77633,7.1753 2.55924,1.2968 10.92194,4.1627 18.58384,6.3686 7.6618,2.206 19.3635,5.3761 26.0038,7.0449 6.6402,1.6687 17.0208,4.5853 23.0679,6.4813 6.0472,1.8959 14.6235,4.8466 19.0586,6.5569 4.4351,1.7104 11.1545,5.2855 14.932,7.9449 3.7776,2.6593 8.9679,7.0873 11.5342,9.8401 2.5662,2.7527 5.8324,7.3072 7.2583,10.121 1.4259,2.8138 3.2637,7.6931 4.0841,10.8429 0.8572,3.2907 1.4917,10.1284 1.4917,16.074 0,5.6909 -0.5081,12.4588 -1.1292,15.0399 -0.6211,2.581 -2.8092,8.3355 -4.8624,12.7876 -2.0533,4.4522 -5.4259,9.9685 -7.4948,12.2584 -2.0689,2.29 -6.5183,6.2533 -9.8876,8.8072 -3.3693,2.554 -9.726,6.3402 -14.126,8.4139 -4.4,2.0737 -11.6,4.678 -16,5.7873 -4.4,1.1093 -12.7827,2.7193 -18.6283,3.5777 -5.8456,0.8584 -12.5956,1.4904 -15,1.4046 z m 216.1283,-1.3397 c -5.3352,0.2392 -13.6648,-0.1832 -19,-0.9634 -5.225,-0.7642 -12.566,-2.5553 -16.3133,-3.9804 -3.7473,-1.425 -9.1473,-3.7583 -12,-5.1851 -2.8527,-1.4268 -8.3367,-4.9975 -12.1867,-7.9348 -3.85,-2.9373 -8.4298,-6.6006 -10.1773,-8.1406 -1.7476,-1.5399 -5.7333,-6.3999 -8.8572,-10.7999 -3.1239,-4.4 -6.7618,-10.1328 -8.0842,-12.7395 -1.3224,-2.6068 -3.8197,-8.9068 -5.5497,-14 -2.9694,-8.7427 -3.1697,-10.2771 -3.5827,-27.4419 -0.4209,-17.4998 -0.3353,-18.5308 2.2835,-27.5 1.4965,-5.1253 3.9627,-12.0804 5.4804,-15.4558 1.5177,-3.3755 4.6501,-8.9213 6.9609,-12.3241 2.3108,-3.4028 7.1224,-9.2833 10.6925,-13.0678 3.5701,-3.7844 8.952,-8.5143 11.9598,-10.5108 3.0078,-1.9964 8.9349,-5.3621 13.1714,-7.4792 4.2364,-2.1172 12.5844,-5.0493 18.5509,-6.5159 10.0636,-2.4736 12.0168,-2.6336 27,-2.2114 12.4492,0.3507 17.9856,0.9574 24.1517,2.6466 4.4,1.2054 11.15,3.6943 15,5.5309 3.85,1.8366 9.7758,5.3035 13.1684,7.7041 3.3927,2.4006 8.4527,6.5307 11.2446,9.178 2.7919,2.6472 7.113,7.6676 9.6026,11.1564 2.4896,3.4889 6.2755,10.0979 8.4132,14.6869 2.1376,4.5889 5.0532,13.1297 6.4789,18.9795 2.0805,8.536 2.5908,13.0772 2.5845,23 -0.01,10.2876 -0.4979,14.3395 -2.9253,24.1273 -2.019,8.1406 -4.3485,14.4538 -7.5644,20.5 -2.5558,4.8052 -6.468,11.0977 -8.6938,13.9835 -2.2258,2.8857 -6.9046,7.9199 -10.3973,11.1871 -3.4926,3.2673 -9.4703,7.7941 -13.2838,10.0596 -3.8134,2.2655 -10.0479,5.4276 -13.8544,7.0269 -3.8065,1.5994 -10.9377,3.6167 -15.8471,4.4829 -4.9093,0.8662 -13.2011,1.7666 -18.4261,2.0009 z m -3.3553,-22.5787 c 10.7008,0.061 14.4192,-0.3185 20,-2.0394 3.7704,-1.1626 9.1053,-3.2456 11.8553,-4.6289 2.75,-1.3832 7.6105,-4.3383 10.8011,-6.5668 3.1906,-2.2286 7.8519,-6.7801 10.3585,-10.1145 2.5065,-3.3344 5.8004,-8.5406 7.3197,-11.5693 1.5193,-3.0286 3.6928,-8.2066 4.8301,-11.5066 1.1372,-3.3 2.556,-10.275 3.1527,-15.5 0.8514,-7.4538 0.7837,-11.766 -0.3139,-20.0202 -0.9378,-7.0519 -2.4558,-13.0587 -4.6044,-18.2201 -1.763,-4.2349 -4.8875,-10.3008 -6.9433,-13.4798 -2.0558,-3.1789 -5.9569,-8.0513 -8.6691,-10.8275 -3.4891,-3.5714 -8.0023,-6.5686 -15.4314,-10.2479 -9.1453,-4.5292 -11.8966,-5.3951 -21.3248,-6.7112 -9.7498,-1.361 -11.8354,-1.3543 -21,0.067 -7.9947,1.2402 -12.1965,2.5517 -19.6077,6.1199 -7.8346,3.7721 -10.8025,5.9203 -17.519,12.6804 -5.9104,5.9486 -9.0877,10.1572 -11.8066,15.6389 -2.0461,4.125 -4.8459,12 -6.2219,17.5 -1.7025,6.8052 -2.4965,12.7156 -2.4852,18.5 0.01,4.6858 0.8505,12.0898 1.8749,16.5 1.0221,4.4 3.276,11.2741 5.0086,15.2757 1.7327,4.0017 5.4201,10.3867 8.1944,14.1891 2.7742,3.8023 7.3946,8.6879 10.2674,10.8569 2.8728,2.169 7.675,5.1875 10.6716,6.7079 2.9966,1.5204 8.3733,3.7897 11.9483,5.0429 5.4318,1.9041 8.6602,2.2908 19.6447,2.353 z m 312.1447,22.9755 c -2.9092,-0.054 -8.9045,-0.6609 -13.3229,-1.3477 -4.4185,-0.6868 -10.4935,-2.055 -13.5,-3.0402 -3.0066,-0.9853 -8.1665,-3.1413 -11.4665,-4.7911 -3.3,-1.6498 -8.379,-4.8497 -11.2867,-7.1108 -2.9077,-2.2612 -7.2326,-6.5862 -9.611,-9.6112 -2.3783,-3.025 -5.9158,-8.9514 -7.8611,-13.1697 -1.9453,-4.2184 -4.47,-11.6444 -5.6105,-16.5024 -1.9697,-8.3896 -2.0781,-11.8094 -2.1621,-68.1557 -0.066,-44.2911 0.2112,-59.6839 1.0939,-60.7475 0.8826,-1.0635 3.7828,-1.4247 11.4375,-1.4247 7.0085,0 10.5691,0.3957 11.2469,1.25 0.6146,0.7747 1.2176,23.6838 1.5857,60.25 0.4708,46.7598 0.8874,59.9339 2.0081,63.5016 0.7778,2.4758 2.8392,7.6508 4.581,11.5 1.8621,4.1151 5.1055,8.9898 7.8726,11.8321 2.5881,2.6585 7.1807,6.0943 10.2057,7.6352 3.025,1.5408 8.5849,3.7532 12.3553,4.9163 5.2623,1.6233 9.4789,2.1148 18.1447,2.1148 8.6549,0 12.8891,-0.4926 18.1447,-2.1108 3.7704,-1.1609 9.5553,-3.3573 12.8553,-4.881 4.2355,-1.9556 8.266,-5.0845 13.7053,-10.6393 6.9645,-7.1124 8.1179,-8.8784 11.9968,-18.3689 4.1549,-10.1659 4.3013,-10.8977 4.6011,-23 0.1703,-6.875 0.6218,-32.975 1.0032,-58 l 0.6936,-45.5 11.1015,-0.2814 c 8.5256,-0.2161 11.3693,0.041 12.2554,1.1089 0.8572,1.0329 1.0881,24.628 0.8984,91.7814 l -0.2553,90.3911 h -11.5 -11.5 l -0.2806,-13.4807 c -0.1544,-7.4143 -0.6411,-13.841 -1.0816,-14.2815 -0.4406,-0.4406 -3.503,2.0996 -6.8055,5.6448 -3.3025,3.5451 -9.1441,8.4767 -12.9813,10.9589 -3.8371,2.4823 -10.7734,6.0842 -15.4138,8.0043 -6.0914,2.5205 -11.137,3.7918 -18.1478,4.5727 -5.3408,0.5948 -12.0908,1.037 -15,0.9825 z m 219.2106,-0.022 c -3.025,-0.063 -7.6011,-0.4684 -10.1691,-0.9018 -2.5681,-0.4333 -7.1231,-1.5013 -10.1223,-2.3732 -2.9992,-0.8719 -8.1634,-3.3951 -11.476,-5.6071 -3.3125,-2.2121 -7.5681,-5.7324 -9.4569,-7.823 -1.8887,-2.0906 -4.8213,-7.1474 -6.5168,-11.2373 -1.6955,-4.0899 -3.5578,-10.1362 -4.1383,-13.4362 -0.625,-3.5526 -1.2093,-29.3707 -1.4325,-63.2944 -0.2126,-32.318 -0.7717,-57.6874 -1.2825,-58.1958 -0.4981,-0.4957 -7.3387,-1.2188 -15.2013,-1.6068 -12.2488,-0.6044 -14.4324,-0.9608 -15.25,-2.4885 -0.5249,-0.9807 -0.9543,-5.1325 -0.9543,-9.2263 0,-4.7411 0.4538,-7.8156 1.25,-8.4687 0.6875,-0.564 7.4155,-1.1816 14.9512,-1.3725 8.9192,-0.2259 14.1209,-0.7672 14.9038,-1.5509 0.8083,-0.809 1.3561,-7.0394 1.6705,-19 0.2573,-9.7878 0.9182,-18.3586 1.4686,-19.0461 0.6734,-0.8411 4.0899,-1.25 10.4441,-1.25 5.1938,0 10.3137,0.4658 11.3775,1.0352 1.7976,0.962 1.9343,2.2539 1.9343,18.2775 0,13.9871 0.2939,17.6618 1.5567,19.4648 1.5388,2.1968 1.8479,2.2225 26.8,2.2225 18.3004,0 25.5734,0.33 26.4433,1.2 0.7377,0.7377 1.2,4.3505 1.2,9.3775 0,5.3455 -0.4329,8.5217 -1.25,9.1711 -0.7116,0.5656 -12.206,1.2205 -26.6889,1.5206 -22.9435,0.4754 -25.5676,0.703 -26.75,2.3201 -1.0406,1.423 -1.3105,12.2239 -1.3083,52.3518 0,30.7239 0.4354,54.0864 1.1055,59.5503 0.6775,5.5239 1.988,10.7303 3.3982,13.5 1.2626,2.4797 3.3526,5.457 4.6445,6.6162 1.292,1.1592 4.141,3.2967 6.3311,4.75 3.7848,2.5114 4.6166,2.6424 16.7786,2.6424 12.2308,0 13.059,-0.1326 18.7393,-3 3.2686,-1.65 6.8672,-3 7.9967,-3 1.5891,0 2.8433,1.7323 5.5426,7.6557 3.3546,7.3612 3.421,7.7309 1.7248,9.6103 -0.9703,1.075 -4.8849,3.5276 -8.6993,5.4501 -4.6029,2.32 -9.8154,3.9631 -15.5,4.8859 -4.7106,0.7647 -11.0398,1.3392 -14.0648,1.2766 z m 256.6441,-0.022 c -0.079,-0.079 -5.5717,-0.5116 -12.2053,-0.9615 -9.5427,-0.647 -13.9279,-1.476 -21,-3.9697 -4.9164,-1.7335 -10.9638,-4.179 -13.4388,-5.4344 -2.475,-1.2554 -8.2414,-4.9602 -12.8143,-8.2327 -4.5728,-3.2726 -10.1416,-8.157 -12.3751,-10.8541 -2.2334,-2.6972 -5.7429,-7.3789 -7.7989,-10.4039 -2.0559,-3.025 -5.1771,-8.3542 -6.936,-11.8426 -1.7589,-3.4884 -4.0382,-9.1134 -5.0652,-12.5 -1.0269,-3.3866 -2.4136,-10.6135 -3.0815,-16.0597 -0.7134,-5.8178 -0.9586,-14.0805 -0.5945,-20.0316 0.3408,-5.5711 1.7086,-14.4215 3.0393,-19.6675 1.3308,-5.2461 4.1004,-12.8819 6.1547,-16.9684 2.0543,-4.0866 5.0874,-9.4552 6.7402,-11.9302 1.6528,-2.475 5.981,-7.5767 9.6182,-11.3372 3.6372,-3.7604 8.9751,-8.367 11.862,-10.2368 2.8869,-1.8699 8.3821,-4.9776 12.2117,-6.9062 3.8295,-1.9285 10.9175,-4.6773 15.7511,-6.1085 6.7253,-1.9913 12.0564,-2.7557 22.7107,-3.2567 9.5626,-0.4496 16.2953,-0.2529 21.5,0.6281 4.1677,0.7055 10.6448,2.1959 14.3936,3.312 3.7488,1.1161 10.1031,3.7303 14.1205,5.8092 4.0175,2.079 9.9503,5.8233 13.184,8.3208 3.2337,2.4975 8.6118,7.4061 11.9513,10.9081 3.3395,3.5019 7.9407,9.5244 10.225,13.3833 2.2843,3.8589 5.2459,9.7089 6.5814,13 1.3355,3.2911 3.4259,10.6501 4.6454,16.3532 1.9109,8.9373 2.1462,12.39 1.7038,25 -0.4024,11.4682 -1.0496,16.4969 -2.9938,23.2643 -1.3642,4.7485 -3.6589,11.2077 -5.0992,14.3537 -1.4403,3.1461 -4.6292,8.711 -7.0865,12.3664 -2.4573,3.6555 -7.5296,9.7963 -11.2718,13.6463 -3.7422,3.85 -10.3329,9.2021 -14.6459,11.8936 -4.313,2.6914 -12.7118,6.6089 -18.6639,8.7055 -7.6446,2.6927 -13.8102,4.1186 -21.0001,4.8564 -5.5979,0.5745 -10.2429,0.9798 -10.3221,0.9008 z m -1.9061,-22.9276 c 10.9733,0.064 13.2097,-0.24 21.6393,-2.9402 6.007,-1.9242 12.0588,-4.7716 16.762,-7.8865 4.0484,-2.6813 9.3243,-7.2065 11.7243,-10.056 2.3999,-2.8495 5.8685,-7.6801 7.7079,-10.7348 1.8395,-3.0547 4.7134,-9.663 6.3865,-14.6851 2.8682,-8.6094 3.042,-10.0208 3.042,-24.7034 0,-13.734 -0.2783,-16.39 -2.3573,-22.4976 -1.2965,-3.8088 -3.7251,-9.6251 -5.397,-12.9251 -1.6719,-3.3 -4.9962,-8.6342 -7.3875,-11.8537 -2.3913,-3.2195 -7.2751,-8.055 -10.853,-10.7456 -3.5778,-2.6905 -9.7633,-6.2551 -13.7454,-7.9212 -4.2597,-1.7822 -11.361,-3.6454 -17.25,-4.526 -8.8942,-1.3298 -11.1292,-1.3293 -20.0535,0.01 -5.6968,0.8518 -12.977,2.7342 -16.8209,4.3493 -3.7275,1.5661 -9.3197,4.535 -12.4271,6.5976 -3.1075,2.0626 -7.9086,6.2215 -10.6691,9.242 -2.7606,3.0205 -6.6675,8.4393 -8.6821,12.0417 -2.0146,3.6025 -4.9441,10.6364 -6.51,15.631 -2.5403,8.1025 -2.8471,10.5355 -2.8471,22.5788 0,11.6633 0.3525,14.66 2.5938,22.0494 1.4267,4.7034 4.23,11.7016 6.2296,15.5516 2.3727,4.5682 6.256,9.6342 11.1784,14.5828 5.5385,5.568 9.5828,8.5911 15.2216,11.3779 4.2236,2.0874 10.5136,4.6056 13.9779,5.596 4.4287,1.2662 9.932,1.8219 18.5367,1.872 z m 429.4203,22.9405 c -4.2121,-0.072 -11.2583,-0.5364 -15.6583,-1.0322 -4.4,-0.4957 -11.7439,-1.7859 -16.3198,-2.867 -4.5759,-1.0811 -12.9009,-3.7996 -18.5,-6.0411 -5.5991,-2.2415 -12.2043,-5.3091 -14.6782,-6.8169 -2.4739,-1.5078 -5.1342,-3.875 -5.9118,-5.2604 -1.3155,-2.3438 -1.1167,-3.0574 2.8588,-10.2592 2.35,-4.2572 4.8801,-7.9733 5.6224,-8.2582 0.7424,-0.2849 6.88,2.2044 13.6392,5.5316 6.7592,3.3273 17.0816,7.4186 22.9386,9.0919 10.1788,2.9079 11.4861,3.0423 29.5935,3.0423 15.9249,0 19.8136,-0.2991 24.3989,-1.8767 3,-1.0322 7.2935,-2.8148 9.541,-3.9614 2.2475,-1.1466 5.5057,-3.5041 7.2405,-5.2388 1.7348,-1.7348 4.0368,-4.8843 5.1155,-6.9988 1.383,-2.7108 1.9614,-5.863 1.9614,-10.6887 0,-5.8284 -0.4288,-7.5202 -2.8895,-11.4003 -1.8966,-2.9907 -4.9583,-5.813 -8.9104,-8.2138 -3.3116,-2.0116 -9.3238,-4.4982 -13.3606,-5.5256 -4.0367,-1.0274 -16.5645,-3.7629 -27.8395,-6.0788 -11.275,-2.3159 -24.1,-5.345 -28.5,-6.7314 -4.4,-1.3864 -10.5203,-3.7904 -13.6006,-5.3422 -3.1122,-1.5679 -8.2219,-5.5307 -11.5,-8.919 -3.2447,-3.3537 -7.1355,-8.6686 -8.6463,-11.811 -2.5642,-5.3337 -2.7471,-6.5838 -2.75,-18.8038 0,-12.6819 0.095,-13.2867 3.143,-19.3861 1.7303,-3.4627 6.1,-9.4271 9.7103,-13.2543 4.8499,-5.1411 8.5719,-7.9679 14.2505,-10.8231 4.2274,-2.1254 11.2202,-4.8046 15.5396,-5.9536 4.3194,-1.149 13.4785,-2.5905 20.3535,-3.2033 9.5793,-0.8538 14.8215,-0.8253 22.4355,0.122 5.4646,0.68 15.0583,2.53 21.3195,4.1113 6.5671,1.6586 15.0569,4.695 20.0645,7.1762 6.5528,3.2469 8.7577,4.8443 8.9956,6.5168 0.1805,1.2696 -1.4942,5.261 -3.9218,9.3473 -2.3303,3.9224 -4.8547,7.3688 -5.6099,7.6586 -0.7552,0.2898 -5.4478,-1.3663 -10.4281,-3.6802 -4.9802,-2.314 -13.3975,-5.3347 -18.7051,-6.7129 -6.1363,-1.5933 -13.6556,-2.6921 -20.6502,-3.0177 -8.6203,-0.4011 -13.0721,-0.082 -20.5783,1.4738 -5.2681,1.0921 -12.0973,3.2191 -15.176,4.7266 -3.0787,1.5075 -6.9359,4.1467 -8.5716,5.8649 -1.6356,1.7182 -3.9189,4.9173 -5.074,7.1092 -1.5596,2.9595 -2.1001,5.8046 -2.1001,11.0542 0,6.0591 0.4085,7.7131 2.859,11.5771 1.5724,2.4795 5.0125,5.9347 7.6447,7.6781 2.6322,1.7435 7.3081,4.1252 10.391,5.2928 3.0829,1.1675 16.1803,4.3198 29.1053,7.0051 12.925,2.6852 26.548,5.8041 30.2733,6.9307 3.7253,1.1267 10.0253,3.5539 14,5.3939 5.0614,2.343 8.9362,5.1038 12.932,9.2141 3.1379,3.2278 6.6189,7.9439 7.7355,10.4801 1.1165,2.5362 2.5315,7.9828 3.1444,12.1034 0.8202,5.5144 0.8191,9.3951 0,14.7008 -0.6844,4.411 -2.4373,9.8042 -4.5166,13.8966 -1.964,3.8654 -5.6488,8.8627 -8.7313,11.8411 -2.9332,2.8343 -8.5331,6.7459 -12.444,8.6925 -3.911,1.9466 -9.761,4.4255 -13,5.5087 -3.2391,1.0832 -11.443,2.6841 -18.2309,3.5575 -6.788,0.8735 -15.788,1.5292 -20,1.4573 z m -1058.1916,-1.8692 c -5.8484,0 -10.9334,-0.3 -11.3,-0.6667 -0.3667,-0.3667 -0.6667,-58.3267 -0.6667,-128.8 0,-98.3259 0.2792,-128.4125 1.2,-129.3333 0.7775,-0.7775 4.8144,-1.2 11.4648,-1.2 9.1251,0 10.3798,0.2147 11.3,1.9342 0.698,1.3042 1.0352,43.2606 1.0352,128.8 0,97.3401 -0.2793,127.1451 -1.2,128.0658 -0.7829,0.7828 -4.8963,1.2 -11.8333,1.2 z m 471.6182,0 c -5.6384,0 -10.5516,-0.3 -10.9182,-0.6667 -0.3667,-0.3667 -0.6667,-41.4935 -0.6667,-91.393 0,-81.8081 0.1555,-90.786 1.5818,-91.3333 0.87,-0.3339 5.955,-0.607 11.3,-0.607 6.2253,0 10.1495,0.4313 10.9182,1.2 0.9156,0.9156 1.2,22.5762 1.2,91.393 0,81.3217 -0.1556,90.2527 -1.5818,90.8 -0.87,0.3338 -6.195,0.607 -11.8333,0.607 z m 314.3647,0 c -7.889,0 -11.1475,-0.3545 -11.489,-1.25 -0.2621,-0.6875 -0.3605,-41.975 -0.2186,-91.75 l 0.258,-90.5 9,-0.2941 c 4.95,-0.1617 9.9484,-0.057 11.1076,0.2333 1.9804,0.4956 2.1387,1.3449 2.6249,14.0857 0.2845,7.457 0.8401,13.877 1.2346,14.2667 0.3944,0.3896 3.3687,-2.1086 6.6094,-5.5516 3.2408,-3.443 9.234,-8.4415 13.3184,-11.1079 4.0844,-2.6663 10.3318,-6.011 13.883,-7.4327 3.5512,-1.4216 10.229,-3.3981 14.8395,-4.3921 5.6354,-1.215 12.4792,-1.7972 20.8826,-1.7763 10.5007,0.026 14.0964,0.4719 22.4811,2.7877 5.4896,1.5163 13.3646,4.5697 17.5,6.7855 4.4984,2.4103 10.2633,6.7135 14.3505,10.7122 5.066,4.9562 7.9683,8.9294 11.2298,15.3734 2.4191,4.7794 5.347,11.9794 6.5066,16 2.0097,6.9683 2.134,10.1463 2.6571,67.9467 0.3018,33.3501 0.25,61.8267 -0.1152,63.2815 l -0.6638,2.645 -11.7231,-0.2815 -11.723,-0.2815 -0.6757,-51.5 c -0.3716,-28.325 -0.8529,-56 -1.0695,-61.5 -0.3313,-8.4151 -0.9129,-11.289 -3.6693,-18.1328 -2.0644,-5.1258 -5.1815,-10.428 -8.4305,-14.3403 -3.221,-3.8787 -7.0176,-7.1587 -10.1196,-8.7428 -2.7305,-1.3944 -7.8033,-3.6038 -11.2728,-4.9097 -5.6009,-2.1082 -7.968,-2.3744 -21.1103,-2.3744 -12.9313,0 -15.6796,0.2985 -21.7463,2.3619 -3.8194,1.2991 -8.9607,3.3903 -11.4252,4.6473 -2.4644,1.257 -7.5696,5.0302 -11.3447,8.385 -5.5282,4.9125 -7.7045,7.773 -11.1828,14.6987 -2.3753,4.7296 -5.0303,11.3453 -5.9,14.7016 -1.3069,5.0432 -1.6767,15.3535 -2.131,59.4039 -0.3023,29.3159 -0.7545,54.3141 -1.005,55.5516 -0.4391,2.1695 -0.8491,2.25 -11.4677,2.25 z m -313.6127,-225 c -7.214,0 -7.4795,-0.09 -11.6933,-3.9744 -2.703,-2.4915 -4.7731,-5.5144 -5.5483,-8.1019 -0.7289,-2.4328 -0.9562,-5.7872 -0.5537,-8.1698 0.4573,-2.7071 1.982,-5.4515 4.6161,-8.3092 2.9278,-3.1762 5.1691,-4.5635 8.7676,-5.4268 3.6576,-0.8774 5.8981,-0.8789 9.2045,-0.01 2.5667,0.6777 5.9268,2.6565 8.1421,4.7952 2.1637,2.0889 4.217,5.2948 4.8161,7.5196 0.7698,2.8588 0.7073,5.1931 -0.2378,8.8808 -0.9813,3.8288 -2.3205,5.9166 -5.707,8.8975 -4.2887,3.7751 -4.6518,3.8949 -11.8063,3.8949 z M 1715.2826,959.07248 c -34.9451,0 -44.9361,-0.27565 -45.3063,-1.25 -0.2613,-0.6875 -0.3597,-98.9 -0.2187,-218.25 l 0.2564,-217 42.3843,-0.26096 c 30.4589,-0.18753 42.7686,0.0579 43.75,0.87245 1.0425,0.86517 1.3657,4.66168 1.3657,16.04234 0,12.26679 0.2633,15.00998 1.4859,15.47911 0.9287,0.35639 4.0113,-1.74402 8.2215,-5.60188 3.7047,-3.39463 9.7545,-8.17896 13.4442,-10.63184 3.6897,-2.45288 10.9185,-6.45409 16.0641,-8.89157 5.1455,-2.43747 14.7395,-5.87002 21.3199,-7.62786 11.72,-3.1308 12.4956,-3.20425 37.9644,-3.5955 l 26,-0.39942 15.5926,3.9354 c 8.5759,2.16447 19.9794,5.80965 25.341,8.1004 5.3617,2.29076 12.295,5.58115 15.4075,7.31198 3.1124,1.73084 8.8767,5.29511 12.8096,7.92061 3.9328,2.6255 10.3481,7.53239 14.256,10.9042 3.9079,3.37182 10.0177,9.53024 13.5773,13.68539 3.5595,4.15514 8.8967,11.20034 11.8603,15.65598 2.9636,4.45564 7.502,12.31125 10.0852,17.4569 2.5832,5.14565 6.221,13.92065 8.084,19.5 1.863,5.57935 4.566,15.98078 6.0066,23.11429 2.5184,12.46987 2.6047,14.01238 2.2401,40 -0.3268,23.29006 -0.6902,28.48278 -2.6263,37.52998 -1.2359,5.775 -3.8466,15.225 -5.8016,21 -1.9551,5.775 -5.7487,14.716 -8.4304,19.86889 -2.6816,5.15289 -7.3387,13.07064 -10.3492,17.595 -3.0104,4.52437 -9.5593,12.54341 -14.5531,17.82009 -4.9939,5.27668 -13.2242,12.72965 -18.2897,16.56215 -5.0654,3.8325 -13.0349,9.06751 -17.7099,11.63335 -4.675,2.56585 -11.425,5.93702 -15,7.4915 -3.575,1.55448 -10.775,4.18021 -16,5.83496 -5.225,1.65475 -14.225,3.73302 -20,4.61836 -5.775,0.88535 -14.5049,2.00298 -19.3998,2.48361 -6.0613,0.59516 -13.7423,0.45069 -24.0826,-0.45297 -8.3505,-0.72978 -18.9053,-2.27731 -23.455,-3.43897 -4.5498,-1.16166 -11.1683,-3.20215 -14.7079,-4.53443 -3.5395,-1.33227 -9.9799,-4.26634 -14.312,-6.52015 -4.3321,-2.2538 -10.3373,-5.97963 -13.3449,-8.27961 -3.0076,-2.29998 -7.5258,-5.90773 -10.0403,-8.01722 -2.5146,-2.10949 -5.0412,-3.54543 -5.6147,-3.19098 -0.7079,0.43749 -1.0428,23.5232 -1.0428,71.88544 0,54.07632 -0.2891,71.5301 -1.2,72.44098 -0.8976,0.89764 -12.4959,1.2 -46.0314,1.2 z m 130.3695,-188.15734 c 6.5633,0.11955 10.7667,-0.44557 17.5,-2.35274 4.8741,-1.38055 12.6869,-4.40185 17.3619,-6.71402 6.9071,-3.41611 10.2969,-5.99102 18.0882,-13.73992 8.2011,-8.15642 10.2654,-10.91034 14.2692,-19.03598 2.5745,-5.225 5.8895,-14 7.3667,-19.5 2.4168,-8.99881 2.6857,-11.70203 2.6857,-27 0,-15.33994 -0.2634,-17.97138 -2.6974,-26.94755 -1.4836,-5.47115 -4.5119,-13.57115 -6.7297,-18 -2.2177,-4.42885 -6.6071,-11.26154 -9.7543,-15.18375 -3.1717,-3.95287 -8.8959,-9.41395 -12.843,-12.25276 -3.9165,-2.8168 -10.2128,-6.52336 -13.9917,-8.2368 -3.7789,-1.71344 -11.0961,-4.1872 -16.2604,-5.49725 -5.9901,-1.5195 -12.2607,-2.38189 -17.3192,-2.38189 -4.3612,0 -12.4239,0.93133 -17.9171,2.06963 -6.6441,1.3768 -13.4037,3.68333 -20.1923,6.89006 -9.2317,4.36082 -11.1306,5.76052 -19.9163,14.68037 -8.3796,8.50753 -10.2823,11.0944 -13.8724,18.85994 -2.2884,4.95 -4.9766,11.475 -5.9738,14.5 -0.9971,3.025 -2.2986,9.55 -2.8921,14.5 -0.5935,4.95 -1.2767,10.8 -1.5181,13 -0.2415,2.2 0.039,8.5 0.6224,14 0.5838,5.5 2.1144,14.17204 3.4013,19.27121 1.2869,5.09917 3.7281,12.09105 5.4248,15.53751 1.6966,3.44646 5.6576,9.69114 8.8022,13.87707 3.1644,4.21243 8.8429,10.04967 12.7173,13.07281 3.85,3.00413 9.736,6.84275 13.08,8.53028 3.344,1.68753 8.969,3.86042 12.5,4.82865 3.531,0.96822 9.345,2.05456 12.92,2.41409 3.575,0.35953 10.3872,0.7245 15.1381,0.81104 z m -787.6381,78.74277 c -19.0714,0.23927 -28.3984,-0.055 -35,-1.10428 -4.95,-0.78676 -12.15,-2.18236 -16,-3.10134 -3.85,-0.91897 -11.49999,-3.22088 -16.99999,-5.11536 -5.5,-1.89447 -14.11785,-5.41521 -19.15077,-7.82387 -5.03292,-2.40865 -14.02761,-7.64045 -19.9882,-11.62621 -6.68502,-4.47018 -14.96087,-11.30115 -21.59923,-17.82822 -8.05571,-7.92065 -10.7618,-11.21725 -10.7618,-13.11017 0,-1.82153 5.47688,-9.0801 19.5821,-25.95239 10.77016,-12.88298 22.50186,-26.68609 26.07045,-30.67359 3.5686,-3.9875 6.82151,-7.25 7.22871,-7.25 0.40719,0 4.95775,4.72179 10.11236,10.49286 5.80633,6.50074 12.6315,12.83114 17.9392,16.63875 4.71197,3.38023 11.79927,7.65802 15.74957,9.5062 3.9504,1.84818 11.8254,4.48516 17.5,5.85996 5.6747,1.3748 12.9099,2.50022 16.0782,2.50093 3.1683,7.2e-4 9.8325,-0.90572 14.8094,-2.01429 4.9768,-1.10857 11.6096,-3.31106 14.7394,-4.8944 3.3121,-1.67557 8.2454,-5.5437 11.803,-9.2546 3.3619,-3.50668 7.0225,-8.1667 8.1347,-10.3556 1.1122,-2.18889 3.144,-7.57981 4.5151,-11.97981 1.3712,-4.4 3.0242,-13.175 3.6734,-19.5 0.8818,-8.59102 0.976,-36.08722 0.3724,-108.70008 -0.5186,-62.3844 -1.1662,-97.55385 -1.808,-98.18776 -0.6235,-0.61584 -27.7304,-1.29348 -72,-1.79992 l -70.99999,-0.81224 v -38.5 -38.5 h 120.49999 120.5 l 0.3063,140.5 c 0.2151,98.6794 -0.03,144.22069 -0.8232,153 -0.6212,6.875 -2.2106,17.9457 -3.532,24.60155 -1.3214,6.65586 -3.8152,16.10586 -5.5418,21 -1.7266,4.89415 -4.722,12.04845 -6.6564,15.89845 -1.9344,3.85 -5.7408,10.47168 -8.4587,14.71485 -3.108,4.85215 -8.757,11.34574 -15.2239,17.5 -5.9226,5.63619 -13.676,11.82145 -18.2862,14.58768 -4.4021,2.6414 -12.0478,6.54597 -16.9903,8.67683 -4.9426,2.13087 -13.2182,5.02262 -18.3902,6.42612 -5.172,1.40351 -13.0036,3.29476 -17.4036,4.20279 -5.9073,1.21909 -14.8014,1.7363 -34,1.97716 z m 392.2932,-1.72169 c -8.4113,-0.075 -19.1182,-0.49823 -23.7932,-0.94063 -4.675,-0.4424 -12.775,-1.55954 -18,-2.48252 -5.225,-0.92299 -14.7696,-3.20072 -21.2103,-5.06163 -6.4406,-1.86091 -15.8906,-5.22175 -21,-7.46852 -5.1093,-2.24677 -13.6355,-6.5227 -18.9471,-9.50206 -5.3115,-2.97936 -13.6365,-8.50314 -18.5,-12.27507 -4.8634,-3.77193 -12.9101,-11.08249 -17.8815,-16.24568 -4.9714,-5.1632 -12.034,-13.89301 -15.6946,-19.39958 -3.6607,-5.50657 -9.1425,-15.18345 -12.1819,-21.50417 -3.2804,-6.82203 -6.7665,-16.16387 -8.5784,-22.98805 -1.6788,-6.32271 -3.7169,-16.41722 -4.5293,-22.43225 -0.8123,-6.01503 -1.4748,-17.26503 -1.4723,-25 0,-8.75903 0.7362,-18.96697 1.9442,-27.06358 1.0668,-7.15 3.5722,-18.175 5.5675,-24.5 1.9954,-6.325 6.2921,-16.9 9.5482,-23.5 3.256,-6.6 8.9611,-16.2608 12.6778,-21.46843 3.7167,-5.20764 11.4827,-14.20764 17.2577,-20 5.775,-5.79237 14.4498,-13.31185 19.2773,-16.70997 4.8275,-3.39812 13.656,-8.67396 19.619,-11.72408 5.9629,-3.05012 14.3881,-6.91364 18.7227,-8.58559 4.3346,-1.67195 14.181,-4.69704 21.881,-6.72241 l 14,-3.6825 27.3941,-0.37625 c 26.7302,-0.36713 27.6875,-0.31133 39.5,2.30256 6.6583,1.47335 17.2902,4.37474 23.6266,6.44754 6.3364,2.0728 15.7864,5.90713 21,8.52073 5.2136,2.6136 12.8543,7.006 16.9793,9.7609 4.125,2.75489 9.75,6.78068 12.5,8.94618 2.75,2.16551 9.0834,8.29195 14.0742,13.61431 4.9908,5.32235 11.8934,13.88182 15.339,19.02104 3.4457,5.13922 8.0381,13.20055 10.2055,17.91407 2.1673,4.71352 5.3085,12.43371 6.9804,17.15597 1.6718,4.72226 3.9183,12.26892 4.9922,16.77035 1.0739,4.50143 2.7576,14.17643 3.7415,21.5 1.3697,10.19593 1.6575,16.98149 1.228,28.96276 -0.4833,13.48534 -0.8235,15.93714 -2.4621,17.74593 l -1.9013,2.09876 -118.4897,0.25406 c -109.2901,0.23434 -118.5713,0.38335 -119.5401,1.91913 -0.7912,1.25437 -0.387,3.35558 1.6388,8.5188 1.4789,3.76955 4.3775,9.77027 6.4413,13.33494 2.0638,3.56466 6.4464,9.12204 9.7392,12.34974 3.2928,3.22769 8.7647,7.8507 12.1598,10.27335 3.395,2.42266 9.4759,5.9293 13.513,7.79255 4.0372,1.86325 10.2573,4.14215 13.8226,5.06422 3.5653,0.92207 10.0903,2.31146 14.5,3.08755 4.4097,0.77608 12.2927,1.40656 17.5177,1.40107 5.225,-0.005 14.9,-0.84768 21.5,-1.87151 7.2977,-1.13206 15.5724,-3.20868 21.1164,-5.29936 5.014,-1.89081 12.4567,-5.34903 16.5393,-7.68493 4.0826,-2.33589 10.057,-6.49477 13.2763,-9.24194 4.3023,-3.67125 6.5347,-4.91465 8.4247,-4.6922 1.9054,0.22427 8.4729,6.7113 25.3573,25.04661 16.4121,17.82231 22.786,25.41026 22.786,27.12593 0,1.73771 -2.3667,4.47698 -8.75,10.12742 -4.8125,4.25998 -11.829,9.9204 -15.5922,12.57871 -3.7633,2.6583 -11.1883,7.05805 -16.5,9.7772 -5.3118,2.71916 -13.4991,6.29296 -18.194,7.94178 -4.6949,1.64882 -13.2449,4.14669 -19,5.55082 -5.7551,1.40413 -16.8569,3.25074 -24.6706,4.10358 -7.8137,0.85283 -21.0887,1.48929 -29.5,1.41435 z m -10.0618,-193.86374 c 68.7687,0 76.3917,-0.15714 76.94,-1.58608 0.3348,-0.87234 -0.1615,-4.35984 -1.1029,-7.75 -0.9413,-3.39016 -3.4156,-9.76392 -5.4983,-14.16392 -2.0828,-4.4 -5.9881,-10.75747 -8.6785,-14.1277 -2.6904,-3.37024 -8.0417,-8.49928 -11.8917,-11.39788 -3.85,-2.8986 -10.1641,-6.78187 -14.0313,-8.62948 -3.8673,-1.84762 -11.5173,-4.47575 -17,-5.8403 -6.9168,-1.72144 -12.724,-2.48009 -18.9687,-2.47803 -4.95,0.002 -11.925,0.68233 -15.5,1.51269 -3.575,0.83036 -10.0018,2.66541 -14.2817,4.0779 -4.617,1.52373 -11.396,4.94142 -16.6689,8.40378 -6.018,3.95166 -10.6817,8.01125 -14.4458,12.57469 -3.0573,3.70648 -7.3474,10.37625 -9.5335,14.8217 -2.1862,4.44544 -4.8543,11.29711 -5.9292,15.22591 -1.4285,5.2214 -1.6566,7.44104 -0.8476,8.25 0.7896,0.78963 22.9769,1.10672 77.4381,1.10672 z M 2546.514,847.5645 c -11.275,0.15773 -22.525,0.10507 -25,-0.11702 -2.475,-0.22209 -9.45,-1.09879 -15.5,-1.94822 -6.05,-0.84944 -15.3391,-2.63855 -20.6425,-3.9758 -5.3034,-1.33726 -13.6268,-3.83763 -18.4964,-5.55639 -4.8696,-1.71876 -13.8055,-5.60759 -19.8575,-8.64184 -6.052,-3.03425 -14.6036,-7.90855 -19.0036,-10.83178 -4.4,-2.92322 -10.5568,-7.34627 -13.6817,-9.829 -3.125,-2.48273 -9.8007,-9.14408 -14.8349,-14.80301 -5.0342,-5.65893 -11.8194,-14.26261 -15.0781,-19.1193 -3.2588,-4.85668 -7.7349,-12.62225 -9.9469,-17.25682 -2.212,-4.63457 -5.3723,-12.55916 -7.0229,-17.61019 -1.6506,-5.05104 -4.1113,-14.667 -5.4683,-21.36882 -2.1698,-10.71644 -2.4672,-14.78353 -2.4672,-33.74334 0,-19.22021 0.2801,-22.94116 2.5824,-34.31004 1.4203,-7.01351 4.3416,-17.68337 6.4917,-23.71081 2.1501,-6.02744 6.2248,-15.28138 9.0548,-20.56431 2.83,-5.28293 7.9729,-13.65533 11.4286,-18.60533 3.4557,-4.95 10.9315,-13.5605 16.6128,-19.13444 5.6813,-5.57395 13.7047,-12.56793 17.8297,-15.54219 4.125,-2.97425 9.7532,-6.828 12.507,-8.56388 2.7539,-1.73587 9.2789,-5.16868 14.5,-7.62845 5.2212,-2.45978 14.218,-6.04288 19.993,-7.96245 5.775,-1.91956 16.0197,-4.65527 22.7659,-6.07935 11.3283,-2.39131 14.1857,-2.58924 37.3796,-2.58924 23.3874,0 25.9082,0.17819 36.6722,2.59236 6.3572,1.4258 17.6614,4.70303 25.1204,7.28273 7.4591,2.57969 17.4393,6.80392 22.1783,9.38717 4.739,2.58325 12.164,7.23523 16.5,10.33774 4.336,3.10251 10.5931,7.83168 13.9046,10.50927 3.3116,2.67759 8.8954,8.28606 12.4085,12.46325 3.5131,4.17719 8.8325,11.24781 11.8209,15.71248 2.9884,4.46468 7.5849,12.41451 10.2145,17.6663 2.6295,5.25178 6.0032,12.9237 7.497,17.0487 1.4938,4.125 4.2493,14.025 6.1232,22 3.38,14.38396 3.4073,14.69283 3.4111,38.59501 0,22.07569 -0.1495,24.23371 -1.8249,25.75 -1.68,1.52038 -11.4646,1.65499 -120.3,1.65499 -85.6438,0 -118.7796,0.30831 -119.5839,1.11265 -0.8169,0.81686 -0.7112,2.47835 0.3975,6.25 0.8306,2.82554 3.3561,8.73735 5.6122,13.13735 3.1981,6.23689 6.2403,10.13327 13.8036,17.67959 8.3529,8.33398 11.0011,10.30436 19.0504,14.17388 5.1419,2.47186 11.5743,5.22806 14.2943,6.12488 2.72,0.89683 10.37,2.55914 17,3.69404 9.6437,1.65076 14.5546,1.95101 24.5546,1.50127 7.9315,-0.3567 16.3376,-1.46055 23,-3.02025 5.775,-1.35194 13.6445,-3.64713 17.4877,-5.10042 3.8433,-1.45328 10.2473,-4.67387 14.2311,-7.15687 3.9838,-2.48299 9.6964,-6.51289 12.6948,-8.95533 2.9983,-2.44243 6.2694,-4.4339 7.269,-4.42548 0.9996,0.008 2.2936,0.34592 2.8757,0.75 0.582,0.40408 7.557,7.72413 15.5,16.26677 7.9429,8.54265 18.1542,19.67631 22.6917,24.74148 4.5375,5.06517 8.25,9.67329 8.25,10.24026 0,0.56698 -1.9125,3.10747 -4.25,5.64553 -2.3375,2.53807 -7.6145,7.36552 -11.7268,10.72766 -4.1122,3.36214 -12.2122,8.93296 -18,12.37958 -5.7877,3.44663 -15.0457,8.03722 -20.5733,10.20132 -5.5276,2.16409 -14.3755,5.05854 -19.662,6.4321 -5.2866,1.37357 -14.714,3.24166 -20.9499,4.15132 -6.7882,0.99022 -19.5644,1.769 -31.838,1.94069 z m -15.6224,-193.73581 76.1224,-0.25621 0.2856,-3 c 0.1571,-1.65 -0.8471,-6.31691 -2.2316,-10.37091 -1.3844,-4.054 -4.1673,-10.32174 -6.1842,-13.9283 -2.0169,-3.60656 -7.3127,-10.35478 -11.7684,-14.99605 -7.0073,-7.29899 -9.5217,-9.151 -18.6183,-13.71315 -7.7725,-3.89809 -13.1722,-5.82473 -20.6923,-7.38304 -5.5965,-1.1597 -13.4639,-2.10447 -17.4831,-2.09949 -4.1041,0.005 -12.13,1.09233 -18.3077,2.48008 -7.2619,1.63131 -14.0714,3.98606 -20.038,6.92924 -5.8461,2.88371 -11.3966,6.61937 -15.7162,10.57754 -3.673,3.36562 -8.9005,9.44193 -11.6166,13.5029 -2.7162,4.06096 -6.2817,10.89754 -7.9235,15.19238 -1.6418,4.29484 -3.2995,9.28973 -3.6838,11.09976 -0.4429,2.08587 -0.2535,3.82751 0.5173,4.75621 1.052,1.26769 11.4801,1.43071 77.3384,1.20904 z m 381.1285,194.09396 c -7.7033,-0.0824 -15.3561,-0.30721 -17.0061,-0.49957 -1.65,-0.19235 -7.2286,-0.84078 -12.3968,-1.44095 -5.1683,-0.60017 -14.7576,-2.40025 -21.3095,-4.00018 -6.552,-1.59992 -17.9271,-5.37319 -25.2781,-8.38503 -7.351,-3.01183 -17.5618,-8.00765 -22.6905,-11.10182 -5.1288,-3.09416 -11.8001,-7.46116 -14.8251,-9.70444 -3.025,-2.24327 -9.7137,-7.92502 -14.8638,-12.62609 -5.1502,-4.70108 -12.8918,-13.24604 -17.2037,-18.98881 -4.3119,-5.74277 -10.7418,-16.10282 -14.2888,-23.02234 -3.547,-6.91952 -7.8215,-17.08094 -9.4989,-22.58094 -1.6774,-5.5 -3.5522,-12.25 -4.1663,-15 -0.614,-2.75 -1.9625,-10.8223 -2.9965,-17.93845 -1.6092,-11.07405 -1.7404,-14.96469 -0.9111,-27 0.533,-7.73385 1.6451,-18.11155 2.4714,-23.06155 0.8263,-4.95 2.6102,-12.88511 3.9643,-17.63358 1.3541,-4.74847 4.0493,-12.39847 5.9893,-17 1.9401,-4.60153 5.5999,-11.96642 8.1329,-16.36642 2.5331,-4.4 6.4298,-10.475 8.6593,-13.5 2.2296,-3.025 7.0143,-9.04532 10.6328,-13.3785 3.6185,-4.33317 11.3041,-11.67698 17.0791,-16.31957 5.775,-4.64259 14.1997,-10.68226 18.7216,-13.42149 4.5219,-2.73923 12.3969,-6.94722 17.5,-9.35107 5.1031,-2.40386 14.0034,-5.93688 19.7784,-7.85115 5.775,-1.91428 15.675,-4.72639 22,-6.24913 10.9011,-2.62444 13.0023,-2.78945 40.3456,-3.16823 28.1435,-0.38988 29.1536,-0.33506 41.4944,2.25189 6.9569,1.45832 16.9263,4.01788 22.1544,5.68793 5.2281,1.67004 13.7472,5.01432 18.9313,7.43174 5.1842,2.41742 13.9592,7.40677 19.5,11.08744 6.2927,4.18011 13.5856,10.27468 19.4285,16.23614 5.1448,5.2492 11.7345,13.144 14.6438,17.544 2.9092,4.4 6.5748,10.64514 8.1458,13.87809 l 2.8562,5.8781 -3.0567,2.4748 c -1.6811,1.36114 -17.2061,10.07358 -34.5,19.36099 -17.2938,9.28741 -32.2401,16.89111 -33.2139,16.89711 -1.0052,0.006 -3.1494,-2.04256 -4.9599,-4.73909 -1.7541,-2.6125 -7.7073,-9.25704 -13.2294,-14.76565 -7.2506,-7.23298 -11.9953,-11.03726 -17.0773,-13.69272 -3.8705,-2.02239 -11.0705,-4.86178 -16,-6.30977 -5.5156,-1.62013 -12.6431,-2.84808 -18.5318,-3.19272 -7.609,-0.44531 -11.8081,-0.10317 -20.5,1.67034 -6.1234,1.24941 -14.1594,3.71769 -18.2713,5.61208 -4.0371,1.85995 -10.1121,5.39804 -13.5,7.86244 -3.3878,2.46439 -8.6631,6.8624 -11.7229,9.77336 -3.0597,2.91095 -7.528,8.60484 -9.9296,12.65308 -2.4015,4.04825 -6.0828,12.37325 -8.1806,18.5 l -3.8142,11.13956 -0.01,21.04053 c -0.01,20.76082 0.035,21.16629 3.0586,30.5 1.6856,5.20271 4.9441,13.05947 7.241,17.45947 3.1156,5.96828 6.4642,10.29625 13.1852,17.0416 7.6505,7.67817 10.4416,9.73788 18.509,13.65903 5.225,2.53959 12.65,5.60893 16.5,6.82075 5.2192,1.64279 10.4429,2.32929 20.5334,2.6985 11.7763,0.43089 14.6326,0.2079 22,-1.71755 4.6566,-1.21701 12.6717,-4.22115 17.8112,-6.67587 7.4791,-3.5721 11.0214,-6.07289 17.7434,-12.52627 4.6194,-4.43473 10.2087,-10.92898 12.4209,-14.43166 3.6098,-5.7157 4.3588,-6.36853 7.3066,-6.36853 1.8065,0 3.712,0.40023 4.2345,0.8894 0.5225,0.48917 14,7.98381 29.95,16.65475 15.95,8.67095 30.2375,16.62636 31.75,17.6787 1.9332,1.34506 2.75,2.77891 2.75,4.82763 0,1.65937 -1.782,5.8285 -4.1384,9.68191 -2.2761,3.72218 -6.1951,9.46761 -8.7089,12.76761 -2.5139,3.3 -8.3298,9.68265 -12.9244,14.18367 -4.5945,4.50102 -12.263,10.8558 -17.041,14.12174 -4.778,3.26594 -12.0502,7.62699 -16.1603,9.69123 -4.1102,2.06423 -11.3142,5.23661 -16.009,7.04971 -4.6947,1.81311 -13.1174,4.45793 -18.7171,5.87738 -5.5997,1.41945 -15.9429,3.25479 -22.9849,4.07854 -7.0421,0.82375 -19.1065,1.4303 -26.8099,1.3479 z m -723.2837,-5.09036 c -37.2921,0.20493 -47.3775,-0.006 -47.7505,-1 -0.26,-0.6929 -0.5851,-76.27484 -0.7224,-167.95988 -0.1638,-109.48642 -0.5927,-167.03444 -1.2495,-167.6743 -0.6104,-0.59467 -26.5177,-1.2959 -66.5,-1.79992 l -65.5,-0.82571 v -38.5 -38.5 h 181 181 v 38.5 38.5 l -65,0.82363 c -35.75,0.453 -65.3402,1.15318 -65.7559,1.55596 -0.4158,0.40277 -1.0908,76.30714 -1.5,168.67636 l -0.7441,167.94405 z m 965.6238,0.24019 c -35.0072,0 -45.0137,-0.27561 -45.3839,-1.25 -0.2613,-0.6875 -0.3596,-100.025 -0.2186,-220.75 l 0.2563,-219.5 44.885,-0.26039 c 32.3079,-0.18743 45.2675,0.057 46.25,0.87244 1.1308,0.93844 1.365,13.80009 1.365,74.95138 0,47.97444 0.349,74.03421 0.9968,74.43458 0.5482,0.33882 2.9107,-0.77772 5.25,-2.4812 2.3393,-1.70348 7.8532,-5.49944 12.2532,-8.43546 4.4,-2.93603 10.8016,-6.74392 14.2258,-8.46199 3.4243,-1.71807 9.7243,-4.27014 14,-5.67128 4.2758,-1.40113 12.9492,-3.87175 19.2742,-5.49026 11.1564,-2.85483 12.217,-2.94289 35.5,-2.94759 23.2023,-0.005 24.3822,0.0918 35.5,2.90291 6.325,1.59927 15.0142,4.30402 19.3094,6.01057 4.2952,1.70654 10.1452,4.28532 13,5.73062 2.8548,1.4453 8.5656,4.88966 12.6906,7.65414 4.125,2.76447 11.2746,8.66349 15.8879,13.10892 4.6134,4.44544 10.2943,11.00761 12.6242,14.58261 2.33,3.575 6.1215,10.25931 8.4256,14.85402 2.3041,4.59471 5.5264,12.44585 7.1607,17.44699 1.6343,5.00113 4.1932,15.41683 5.6865,23.14598 l 2.7151,14.05301 v 102.5 102.5 h -46 -46 l -0.7305,-89.5 c -0.4665,-57.144 -1.1358,-92.2114 -1.8515,-97 -0.6165,-4.125 -2.2531,-11.1 -3.6369,-15.5 -1.3839,-4.4 -3.7668,-10.475 -5.2954,-13.5 -1.634,-3.23359 -5.6033,-8.20988 -9.6325,-12.07619 -4.4947,-4.31303 -9.2367,-7.69659 -13.7791,-9.83183 -3.8092,-1.7906 -10.2613,-3.89382 -14.3379,-4.67381 -4.0767,-0.77999 -11.4488,-1.41817 -16.3826,-1.41817 -4.9338,0 -12.2067,0.49536 -16.162,1.1008 -3.9554,0.60544 -10.6724,2.43557 -14.9267,4.06694 -4.2543,1.63138 -10.1043,4.58495 -13,6.5635 -2.8957,1.97854 -7.2787,5.35679 -9.7399,7.50722 -2.4613,2.15042 -5.7485,5.78899 -7.3049,8.0857 -1.5564,2.29671 -4.1107,6.66249 -5.6762,9.70173 -1.5655,3.03924 -4.2059,10.01424 -5.8676,15.5 l -3.0211,9.97411 -0.6672,89.5 c -0.4407,59.11696 -1.0178,89.92434 -1.7,90.75 -0.7983,0.96611 -11.2322,1.25 -45.9418,1.25 z m -2592.95704,-62 c -0.57227,0 -1.88049,-1.0125 -2.90715,-2.25 -1.02667,-1.2375 -6.3302,-7.875 -11.78562,-14.75 -5.45543,-6.875 -13.91888,-16.92702 -18.80767,-22.33782 -4.88879,-5.41079 -10.61443,-11.81309 -12.72364,-14.22733 -2.66887,-3.05482 -4.25437,-6.14477 -5.21438,-10.16218 -1.14451,-4.78949 -1.38784,-35.74838 -1.42873,-181.77267 -0.0271,-96.8 -0.30737,-176.96185 -0.62282,-178.13745 -0.33748,-1.25771 -2.28327,-2.90403 -4.72761,-4 -2.28474,-1.0244 -7.308,-3.92598 -11.1628,-6.44795 -3.8548,-2.52198 -9.96912,-7.73616 -13.58736,-11.58709 -3.61825,-3.85092 -8.26045,-9.77026 -10.31602,-13.15408 -2.05556,-3.38382 -5.00923,-9.64463 -6.56371,-13.91292 -1.55448,-4.26828 -3.38971,-11.26782 -4.07828,-15.55452 -0.75516,-4.70117 -1.01773,-11.44715 -0.6617,-17 0.32464,-5.0633 1.30379,-11.90599 2.17589,-15.20599 0.8721,-3.3 3.15869,-9.33506 5.08132,-13.41125 1.92264,-4.07618 5.45404,-10.15118 7.84758,-13.5 2.39353,-3.34881 6.76875,-8.36015 9.72271,-11.1363 2.95396,-2.77615 7.39584,-6.42707 9.87084,-8.11316 2.475,-1.68608 6.51637,-4.08932 8.98082,-5.34053 2.46445,-1.25121 7.63945,-3.36311 11.5,-4.69311 5.34089,-1.84 10.00793,-2.55489 19.51918,-2.98989 7.56942,-0.3462 15.42803,-0.11261 19.92315,0.5922 4.08274,0.64015 10.72113,2.48448 14.75198,4.09851 4.03086,1.61403 9.90709,4.5839 13.0583,6.5997 3.1512,2.0158 7.89308,5.48948 10.53749,7.71929 2.64442,2.2298 7.23727,7.23127 10.20634,11.11436 2.96907,3.8831 6.99415,10.43518 8.94462,14.56018 1.95048,4.125 4.45347,11.05948 5.56222,15.40996 1.4137,5.54707 2.0159,11.16385 2.0159,18.8026 0,6.22053 -0.6774,13.97976 -1.5793,18.09003 -0.86862,3.95858 -3.75785,11.69741 -6.42052,17.19741 -2.66268,5.5 -7.30055,12.96314 -10.30639,16.58475 -3.00585,3.62161 -8.55411,8.9053 -12.32948,11.74152 -3.77537,2.83622 -10.08587,6.75435 -14.02333,8.70696 -3.93746,1.95261 -7.32131,4.09393 -7.51967,4.75848 -0.19836,0.66456 -0.20239,46.73526 -0.009,102.37934 0.2824,81.23487 0.60904,101.52299 1.65764,102.95703 1.23517,1.6892 1.51519,1.64487 5.16796,-0.8182 2.12412,-1.4323 20.05518,-18.60696 39.84679,-38.16592 l 35.98475,-35.56175 -1.33295,-3.2911 c -0.73313,-1.81011 -2.50146,-6.66611 -3.92964,-10.79111 -2.33239,-6.73665 -2.60229,-9.02669 -2.65179,-22.5 -0.0479,-13.02905 0.25274,-15.98547 2.28791,-22.5 1.28867,-4.125 4.09414,-10.875 6.23438,-15 2.14023,-4.125 6.15966,-10.30121 8.93206,-13.72491 2.77239,-3.42369 7.84192,-8.49322 11.26562,-11.26562 3.4237,-2.7724 9.59991,-6.79182 13.72491,-8.93206 4.125,-2.14024 10.875,-4.94571 15,-6.23438 6.4174,-2.00482 9.59302,-2.34303 22,-2.34303 12.41961,0 15.571,0.33631 21.96475,2.34401 4.10562,1.28921 10.18062,3.71154 13.5,5.38295 3.31939,1.67141 8.06025,4.42292 10.53525,6.11447 2.475,1.69155 6.69376,5.11922 9.37502,7.61705 2.68126,2.49784 6.7907,7.24152 9.13209,10.54152 2.34139,3.3 5.61783,8.71586 7.28097,12.03524 1.66314,3.31939 4.0787,9.39439 5.3679,13.5 2.03117,6.46846 2.33995,9.46677 2.31358,22.46476 -0.029,14.27135 -0.18741,15.4538 -3.26176,24.342 -1.77723,5.13809 -4.43376,11.43809 -5.90341,14 -1.46965,2.5619 -4.01701,6.458 -5.66081,8.658 -1.6438,2.2 -4.59857,5.73089 -6.56616,7.84643 -1.96758,2.11554 -6.05242,5.74039 -9.07742,8.05524 -3.025,2.31484 -7.25035,5.21835 -9.38966,6.45224 -2.13931,1.23389 -6.53132,3.31684 -9.76003,4.62878 -3.22871,1.31195 -9.30057,3.1485 -13.49302,4.08123 -5.8192,1.29465 -10.48945,1.57411 -19.73996,1.18121 -9.43812,-0.40087 -13.98423,-1.11604 -20.56082,-3.23452 l -8.44348,-2.71987 -6.05652,6.35978 c -3.33108,3.49788 -20.49379,21.43246 -38.13935,39.85463 -17.64556,18.42217 -35.14316,36.86985 -38.88356,40.99485 -5.32825,5.87611 -8.03636,10.09821 -12.50756,19.5 -3.13875,6.6 -7.59874,16.85498 -9.91108,22.78884 -2.31235,5.93386 -6.1795,17.6709 -8.59368,26.08232 -2.41418,8.41142 -5.19005,20.20645 -6.1686,26.21117 -1.47728,9.06504 -1.73281,15.95808 -1.50589,40.62122 0.18506,20.11325 -0.0803,30.36428 -0.82193,31.75 -0.60238,1.12555 -1.56345,2.04645 -2.13571,2.04645 z M 462.10902,594.06589 c -0.60226,-0.004 -2.27972,-0.79112 -3.72769,-1.75 -1.44797,-0.95888 -9.32297,-7.55439 -17.5,-14.65669 -8.17703,-7.10231 -23.14958,-21.21798 -33.27235,-31.36817 l -18.40502,-18.45488 -10.08468,3.36816 c -9.6612,3.22673 -10.71502,3.36817 -25.09498,3.36817 -12.96032,0 -16.03113,-0.32054 -22.48507,-2.34706 -4.11113,-1.29088 -9.73613,-3.49068 -12.5,-4.88843 -2.76387,-1.39776 -7.50022,-4.22159 -10.52522,-6.27517 -3.025,-2.05359 -8.12493,-6.37879 -11.33318,-9.61157 -3.20824,-3.23277 -7.80264,-8.83605 -10.20976,-12.45173 -2.40713,-3.61568 -5.73338,-9.96237 -7.39167,-14.10375 -1.65829,-4.14138 -3.7495,-11.7581 -4.64715,-16.92604 -1.1503,-6.62254 -1.43598,-11.85062 -0.96776,-17.7107 0.36537,-4.57295 1.5316,-11.70553 2.59162,-15.85018 1.06002,-4.14465 4.0717,-11.65314 6.69261,-16.68555 3.7443,-7.18943 6.69357,-11.09979 13.76529,-18.25101 5.46996,-5.53145 11.74558,-10.70842 16,-13.1989 3.85,-2.25374 11.275,-5.52975 16.5,-7.28002 7.62209,-2.55325 11.68465,-3.28105 20.55177,-3.68184 8.13256,-0.36758 13.28328,-0.0481 19.5,1.20951 4.64653,0.93996 11.68426,3.05477 15.63941,4.69957 3.95516,1.64479 10.2703,5.15291 14.03365,7.79581 3.76336,2.6429 10.04058,8.22978 13.94937,12.41528 4.77283,5.11069 8.63222,10.56328 11.75122,16.60224 2.55436,4.94573 5.5219,12.4236 6.59451,16.61749 1.07262,4.19389 2.23355,11.06704 2.57984,15.27366 0.36011,4.37445 0.11684,11.07283 -0.56832,15.64839 -0.65886,4.4 -2.32773,11.30627 -3.7086,15.34726 l -2.51067,7.34726 2.46683,2.65274 c 1.35676,1.45901 9.09979,9.85274 17.20672,18.65274 9.86889,10.71258 15.60806,17.81755 17.36703,21.5 l 2.62714,5.5 0.01,26.64389 c 0.009,24.80519 -0.12142,26.78923 -1.89494,28.75 -1.04774,1.15836 -2.39774,2.10314 -3,2.09952 z M 724.306,335.46758 c -4.01059,0.26736 -9.61098,0.0728 -12.44531,-0.43235 -2.83432,-0.50516 -7.62494,-1.84323 -10.64582,-2.97348 -3.02088,-1.13026 -8.12688,-3.76116 -11.34668,-5.84645 -3.2198,-2.0853 -8.11264,-6.26793 -10.87297,-9.29474 -2.76034,-3.02681 -6.4588,-8.20503 -8.21881,-11.50714 -1.76001,-3.30212 -3.88905,-8.64924 -4.73121,-11.88249 -0.84216,-3.23326 -1.52585,-9.9466 -1.51932,-14.91855 0.007,-4.97195 0.66957,-11.5115 1.47344,-14.53234 0.80386,-3.02084 2.93494,-8.42084 4.73572,-12 2.0724,-4.119 5.84434,-9.07775 10.27656,-13.50997 4.49817,-4.49817 9.32697,-8.15742 13.50241,-10.23209 3.575,-1.77632 9.18204,-3.91274 12.4601,-4.74759 3.27805,-0.83485 9.59601,-1.51791 14.0399,-1.51791 4.44389,0 10.76184,0.68306 14.0399,1.51791 3.27805,0.83485 8.8851,2.97127 12.4601,4.74759 4.15839,2.0662 9.03004,5.75229 13.52307,10.23209 5.05072,5.03586 8.04074,9.1087 10.64673,14.50241 1.99302,4.125 4.17867,9.9194 4.85701,12.87644 0.67833,2.95705 1.19335,9.03205 1.14449,13.5 -0.0489,4.46796 -0.79644,10.7869 -1.66127,14.0421 -0.86483,3.2552 -3.02088,8.64317 -4.79122,11.97327 -1.77035,3.33009 -5.75376,8.76675 -8.85204,12.08145 -3.09827,3.31471 -8.49827,7.72615 -12,9.80321 -3.50172,2.07707 -9.16037,4.64409 -12.57478,5.7045 -3.4144,1.06041 -9.4894,2.14677 -13.5,2.41413 z"
         id="path25" />
      <path
         style="fill:#3a9393"
         d="m 400.01401,1313.887 c -14.85,-0.083 -28.8,-0.307 -31,-0.4981 -2.2,-0.191 -8.725,-1.0429 -14.5,-1.893 -5.775,-0.8501 -15.55653,-2.8493 -21.73672,-4.4427 -6.1802,-1.5933 -19.2302,-5.8785 -29,-9.5227 -9.76981,-3.6442 -24.51328,-10.1125 -32.76328,-14.374 -8.25,-4.2615 -19.14916,-10.3177 -24.22035,-13.4583 -5.07119,-3.1406 -12.94619,-8.4616 -17.5,-11.8245 -4.55381,-3.3628 -12.32965,-9.5958 -17.27965,-13.8509 -4.95,-4.2551 -14.63633,-13.5221 -21.52517,-20.5934 -6.88884,-7.0713 -16.60876,-18.2569 -21.59982,-24.8569 -4.99107,-6.6 -13.01758,-17.85 -17.8367,-25 -4.81912,-7.15 -12.52192,-20.503 -17.11735,-29.6733 -4.97707,-9.932 -10.61366,-23.2278 -13.94083,-32.8844 -3.07203,-8.916 -6.71261,-20.9811 -8.09019,-26.8112 -1.37757,-5.8301 -3.39887,-16.2322 -4.49177,-23.1157 -1.46368,-9.2188 -2.24929,-21.5303 -2.98252,-46.7397 -0.90926,-31.26206 -0.85151,-34.44398 0.66717,-36.76178 0.91442,-1.39559 2.84487,-2.86965 4.28988,-3.27569 1.44502,-0.40604 42.9023,-0.73798 92.1273,-0.73765 88.42003,6e-4 89.54223,0.0253 93,2.05046 1.925,1.12741 4.04631,3.17965 4.71403,4.56051 0.75069,1.55244 1.62322,12.21968 2.28615,27.94955 0.81493,19.3366 1.57556,27.5978 3.17088,34.4389 1.39921,6.0001 4.04597,12.8331 7.94069,20.5 3.79773,7.4759 8.03701,14.02 12.11508,18.7018 3.45024,3.961 9.18318,9.7146 12.73986,12.7857 4.17326,3.6035 10.73435,7.6755 18.5,11.4816 6.61832,3.2438 16.08331,7.0149 21.03331,8.3802 6.99773,1.93 12.44835,2.6156 24.5,3.0815 12.93895,0.5002 17.16156,0.2802 25.55612,-1.3316 5.53087,-1.0619 13.87935,-3.4487 18.55217,-5.304 4.67282,-1.8552 12.13234,-5.505 16.5767,-8.1105 5.58228,-3.2727 10.66764,-7.4424 16.44784,-13.4864 5.46973,-5.7194 10.55045,-12.4123 14.67201,-19.3276 3.74513,-6.2838 7.90654,-15.1257 10.25,-21.7787 l 3.94516,-11.2002 v -61.39514 c 0,-57.38371 -0.13138,-62.07595 -2.01079,-71.81483 -1.10594,-5.73082 -3.5429,-15.99116 -5.41547,-22.80076 -1.87257,-6.8096 -4.96953,-16.07817 -6.88212,-20.59681 -1.91259,-4.51865 -5.8493,-12.16865 -8.74823,-17 -2.89894,-4.83136 -7.7465,-12.15928 -10.77235,-16.28428 -3.02585,-4.125 -10.10607,-12.9 -15.73381,-19.5 -5.62774,-6.6 -27.49087,-29.17609 -48.58474,-50.16909 -23.75108,-23.63751 -39.3456,-38.41801 -40.96101,-38.8229 -1.43468,-0.35959 -5.94241,-0.1901 -10.01717,0.37665 -4.87262,0.67771 -9.72106,0.70297 -14.16395,0.0738 -3.7154,-0.52617 -9.25727,-1.83604 -12.31525,-2.91084 -3.05799,-1.07479 -7.66038,-3.17315 -10.22754,-4.663 -2.56717,-1.48986 -7.59257,-5.67587 -11.16757,-9.30225 -3.575,-3.62639 -7.94847,-9.32759 -9.71881,-12.66934 -1.77034,-3.34176 -3.91959,-8.73927 -4.77611,-11.99447 -0.85651,-3.2552 -1.57007,-9.78441 -1.58567,-14.50935 -0.0156,-4.72495 0.50053,-10.79995 1.14697,-13.5 0.64645,-2.70006 2.74872,-8.24623 4.67173,-12.32482 2.56649,-5.44339 5.40171,-9.32097 10.6604,-14.57966 4.70424,-4.70424 9.40065,-8.26511 13.6781,-10.37089 3.58274,-1.76378 8.96867,-3.86009 11.96873,-4.65848 3.00006,-0.79838 9.50466,-1.4516 14.45466,-1.4516 4.95,0 11.45459,0.65322 14.45465,1.4516 3.00007,0.79839 8.38599,2.8947 11.96873,4.65848 4.27745,2.10578 8.97387,5.66665 13.6781,10.37089 5.25869,5.25869 8.09392,9.13627 10.6604,14.57966 1.92301,4.07859 4.00604,9.54832 4.62896,12.15495 0.62291,2.60662 1.17488,7.55933 1.22659,11.00602 0.0517,3.4467 -0.22247,9.22193 -0.60927,12.83386 l -0.70328,6.56714 11.84756,12.46034 c 6.51616,6.85319 15.22256,16.04687 19.34756,20.43041 4.125,4.38354 14.6073,14.23589 23.29401,21.89411 8.68671,7.65822 22.13201,20.67561 29.87844,28.92752 7.74643,8.25192 17.40099,18.98831 21.45458,23.85866 4.05359,4.87034 10.03349,12.8161 13.28866,17.65724 3.25518,4.84114 8.69139,14.61231 12.08047,21.71372 3.38909,7.10141 7.72726,17.18666 9.64038,22.41166 1.91313,5.225 5.01056,15.35 6.88319,22.5 1.87263,7.15 4.57841,19.975 6.01286,28.5 2.23617,13.28964 2.78972,21.03847 3.88177,54.33815 1.03459,31.54759 1.03281,43.09216 -0.009,61.49995 -1.1311,19.9763 -1.6896,24.2657 -4.7129,36.1955 -1.88635,7.4435 -4.88764,16.8935 -6.66953,21 -1.78189,4.1065 -5.06966,10.8414 -7.30616,14.9664 -2.23651,4.125 -6.19174,10.65 -8.78941,14.5 -2.59767,3.85 -7.65121,10.4992 -11.23008,14.776 -3.57887,4.2768 -9.36223,10.0635 -12.85192,12.8593 -3.48969,2.7958 -11.29488,8.3765 -17.34488,12.4014 -6.05,4.025 -16.175,10.0102 -22.5,13.3005 -6.325,3.2903 -15.775,7.33 -21,8.9772 -5.225,1.6472 -14.72918,4.1628 -21.12041,5.5902 -9.63392,2.1517 -14.14346,2.5954 -26.37959,2.5954 -12.22612,0 -16.73351,-0.4428 -26.26278,-2.5801 -6.32697,-1.419 -16.05615,-4.1582 -21.6204,-6.0872 -5.56425,-1.9289 -15.51682,-6.1001 -22.11682,-9.2694 -6.6,-3.1693 -15.6,-8.3592 -20,-11.5331 -4.4,-3.174 -11.69259,-8.8725 -16.20576,-12.6634 -4.51317,-3.7909 -11.09342,-10.5992 -14.62277,-15.1297 -3.52935,-4.5304 -8.89545,-12.0621 -11.92465,-16.7371 -3.0292,-4.675 -7.32901,-12.138 -9.55514,-16.5844 -2.22612,-4.4465 -5.59852,-12.5465 -7.49422,-18 -1.8957,-5.4536 -4.46649,-14.4156 -5.71288,-19.9156 -1.24638,-5.5 -2.94754,-10.7875 -3.78035,-11.75 -1.39291,-1.6098 -4.58057,-1.75 -39.79412,-1.75 -21.05395,0 -39.3727,0.4155 -40.70832,0.9233 -1.33562,0.5078 -2.67441,1.864 -2.97509,3.0138 -0.30068,1.1498 0.29855,8.2718 1.33161,15.8267 1.03306,7.5549 3.65963,20.2934 5.83681,28.3078 2.17718,8.0144 5.62949,18.8144 7.6718,24 2.04232,5.1856 6.04438,14.3784 8.89348,20.4284 2.8491,6.05 8.01664,15.725 11.48342,21.5 3.46678,5.775 8.01584,12.801 10.10901,15.6134 2.09316,2.8124 8.59202,10.4624 14.44189,17 5.84988,6.5376 15.8942,16.329 22.32071,21.7585 6.42651,5.4296 18.2965,14.2796 26.37775,19.6667 8.08125,5.3871 18.49046,11.8646 23.13158,14.3945 4.64113,2.5299 12.72398,6.3904 17.96189,8.579 5.23792,2.1886 15.0787,5.5794 21.86842,7.535 6.78971,1.9557 19.31993,4.9952 27.84493,6.7543 l 15.5,3.1986 h 32 32 l 16,-3.8383 c 8.8,-2.1111 22.75,-6.0894 31,-8.8408 9.23889,-3.0811 19.03277,-7.2099 25.5,-10.7499 5.775,-3.1611 14.71668,-8.356 19.8704,-11.5443 5.15372,-3.1882 14.82872,-9.8652 21.5,-14.8377 6.67128,-4.9725 17.21419,-14.0061 23.42869,-20.0746 6.2145,-6.0685 14.96099,-15.6502 19.43664,-21.2926 4.47565,-5.6425 10.7728,-14.2106 13.99367,-19.0404 3.22086,-4.8298 9.60606,-16.2064 14.18932,-25.2814 6.48083,-12.8323 9.3846,-20.0374 13.06312,-32.4134 2.60145,-8.7523 6.21077,-22.5214 8.0207,-30.598 l 3.29078,-14.6846 0.74412,-202.59064 c 0.67218,-183.00728 0.89967,-202.939 2.35334,-206.19453 0.88507,-1.98214 11.73422,-15.04706 24.10922,-29.03314 12.375,-13.98608 23.48692,-25.7093 24.69316,-26.05161 1.20624,-0.3423 2.66874,-0.32845 3.25,0.0308 0.7375,0.4558 1.05211,69.15204 1.0412,227.34415 -0.0151,218.37437 -0.0863,227.18827 -1.94145,240.24657 -1.0592,7.4556 -2.87064,18.2556 -4.02542,24 -1.15479,5.7444 -3.20836,14.5633 -4.56349,19.5975 -1.35513,5.0343 -4.22606,14.2593 -6.37984,20.5 -2.15378,6.2408 -6.34495,16.7548 -9.31372,23.3644 -2.96876,6.6097 -8.24318,16.9597 -11.72092,23 -3.47774,6.0404 -8.58294,14.3575 -11.34489,18.4825 -2.76196,4.125 -9.17417,12.9 -14.24937,19.5 -5.54021,7.2047 -15.96451,18.6092 -26.08645,28.5394 -9.27234,9.0966 -22.25881,20.6089 -28.85881,25.5828 -6.6,4.9738 -16.05,11.748 -21,15.0537 -4.95,3.3057 -13.275,8.2996 -18.5,11.0976 -5.225,2.7979 -15.067,7.6255 -21.87111,10.7279 -6.80411,3.1023 -20.30411,8.2415 -30,11.4202 -12.71641,4.169 -22.08747,6.5171 -33.62889,8.4264 -8.8,1.4558 -20.275,3.0902 -25.5,3.6321 -5.225,0.5419 -21.65,0.9174 -36.5,0.8344 z M 1715.2826,959.07248 c -34.9451,0 -44.9361,-0.27565 -45.3063,-1.25 -0.2613,-0.6875 -0.3597,-98.9 -0.2187,-218.25 l 0.2564,-217 42.3843,-0.26096 c 30.4589,-0.18753 42.7686,0.0579 43.75,0.87245 1.0425,0.86517 1.3657,4.66168 1.3657,16.04234 0,12.26679 0.2633,15.00998 1.4859,15.47911 0.9287,0.35639 4.0113,-1.74402 8.2215,-5.60188 3.7047,-3.39463 9.7545,-8.17896 13.4442,-10.63184 3.6897,-2.45288 10.9185,-6.45409 16.0641,-8.89157 5.1455,-2.43747 14.7395,-5.87002 21.3199,-7.62786 11.72,-3.1308 12.4956,-3.20425 37.9644,-3.5955 l 26,-0.39942 15.5926,3.9354 c 8.5759,2.16447 19.9794,5.80965 25.341,8.1004 5.3617,2.29076 12.295,5.58115 15.4075,7.31198 3.1124,1.73084 8.8767,5.29511 12.8096,7.92061 3.9328,2.6255 10.3481,7.53239 14.256,10.9042 3.9079,3.37182 10.0177,9.53024 13.5773,13.68539 3.5595,4.15514 8.8967,11.20034 11.8603,15.65598 2.9636,4.45564 7.502,12.31125 10.0852,17.4569 2.5832,5.14565 6.221,13.92065 8.084,19.5 1.863,5.57935 4.566,15.98078 6.0066,23.11429 2.5184,12.46987 2.6047,14.01238 2.2401,40 -0.3268,23.29006 -0.6902,28.48278 -2.6263,37.52998 -1.2359,5.775 -3.8466,15.225 -5.8016,21 -1.9551,5.775 -5.7487,14.716 -8.4304,19.86889 -2.6816,5.15289 -7.3387,13.07064 -10.3492,17.595 -3.0104,4.52437 -9.5593,12.54341 -14.5531,17.82009 -4.9939,5.27668 -13.2242,12.72965 -18.2897,16.56215 -5.0654,3.8325 -13.0349,9.06751 -17.7099,11.63335 -4.675,2.56585 -11.425,5.93702 -15,7.4915 -3.575,1.55448 -10.775,4.18021 -16,5.83496 -5.225,1.65475 -14.225,3.73302 -20,4.61836 -5.775,0.88535 -14.5049,2.00298 -19.3998,2.48361 -6.0613,0.59516 -13.7423,0.45069 -24.0826,-0.45297 -8.3505,-0.72978 -18.9053,-2.27731 -23.455,-3.43897 -4.5498,-1.16166 -11.1683,-3.20215 -14.7079,-4.53443 -3.5395,-1.33227 -9.9799,-4.26634 -14.312,-6.52015 -4.3321,-2.2538 -10.3373,-5.97963 -13.3449,-8.27961 -3.0076,-2.29998 -7.5258,-5.90773 -10.0403,-8.01722 -2.5146,-2.10949 -5.0412,-3.54543 -5.6147,-3.19098 -0.7079,0.43749 -1.0428,23.5232 -1.0428,71.88544 0,54.07632 -0.2891,71.5301 -1.2,72.44098 -0.8976,0.89764 -12.4959,1.2 -46.0314,1.2 z m 130.3695,-188.15734 c 6.5633,0.11955 10.7667,-0.44557 17.5,-2.35274 4.8741,-1.38055 12.6869,-4.40185 17.3619,-6.71402 6.9071,-3.41611 10.2969,-5.99102 18.0882,-13.73992 8.2011,-8.15642 10.2654,-10.91034 14.2692,-19.03598 2.5745,-5.225 5.8895,-14 7.3667,-19.5 2.4168,-8.99881 2.6857,-11.70203 2.6857,-27 0,-15.33994 -0.2634,-17.97138 -2.6974,-26.94755 -1.4836,-5.47115 -4.5119,-13.57115 -6.7297,-18 -2.2177,-4.42885 -6.6071,-11.26154 -9.7543,-15.18375 -3.1717,-3.95287 -8.8959,-9.41395 -12.843,-12.25276 -3.9165,-2.8168 -10.2128,-6.52336 -13.9917,-8.2368 -3.7789,-1.71344 -11.0961,-4.1872 -16.2604,-5.49725 -5.9901,-1.5195 -12.2607,-2.38189 -17.3192,-2.38189 -4.3612,0 -12.4239,0.93133 -17.9171,2.06963 -6.6441,1.3768 -13.4037,3.68333 -20.1923,6.89006 -9.2317,4.36082 -11.1306,5.76052 -19.9163,14.68037 -8.3796,8.50753 -10.2823,11.0944 -13.8724,18.85994 -2.2884,4.95 -4.9766,11.475 -5.9738,14.5 -0.9971,3.025 -2.2986,9.55 -2.8921,14.5 -0.5935,4.95 -1.2767,10.8 -1.5181,13 -0.2415,2.2 0.039,8.5 0.6224,14 0.5838,5.5 2.1144,14.17204 3.4013,19.27121 1.2869,5.09917 3.7281,12.09105 5.4248,15.53751 1.6966,3.44646 5.6576,9.69114 8.8022,13.87707 3.1644,4.21243 8.8429,10.04967 12.7173,13.07281 3.85,3.00413 9.736,6.84275 13.08,8.53028 3.344,1.68753 8.969,3.86042 12.5,4.82865 3.531,0.96822 9.345,2.05456 12.92,2.41409 3.575,0.35953 10.3872,0.7245 15.1381,0.81104 z m -787.6381,78.74277 c -19.0714,0.23927 -28.3984,-0.055 -35,-1.10428 -4.95,-0.78676 -12.15,-2.18236 -16,-3.10134 -3.85,-0.91897 -11.49999,-3.22088 -16.99999,-5.11536 -5.5,-1.89447 -14.11785,-5.41521 -19.15077,-7.82387 -5.03292,-2.40865 -14.02761,-7.64045 -19.9882,-11.62621 -6.68502,-4.47018 -14.96087,-11.30115 -21.59923,-17.82822 -8.05571,-7.92065 -10.7618,-11.21725 -10.7618,-13.11017 0,-1.82153 5.47688,-9.0801 19.5821,-25.95239 10.77016,-12.88298 22.50186,-26.68609 26.07045,-30.67359 3.5686,-3.9875 6.82151,-7.25 7.22871,-7.25 0.40719,0 4.95775,4.72179 10.11236,10.49286 5.80633,6.50074 12.6315,12.83114 17.9392,16.63875 4.71197,3.38023 11.79927,7.65802 15.74957,9.5062 3.9504,1.84818 11.8254,4.48516 17.5,5.85996 5.6747,1.3748 12.9099,2.50022 16.0782,2.50093 3.1683,7.2e-4 9.8325,-0.90572 14.8094,-2.01429 4.9768,-1.10857 11.6096,-3.31106 14.7394,-4.8944 3.3121,-1.67557 8.2454,-5.5437 11.803,-9.2546 3.3619,-3.50668 7.0225,-8.1667 8.1347,-10.3556 1.1122,-2.18889 3.144,-7.57981 4.5151,-11.97981 1.3712,-4.4 3.0242,-13.175 3.6734,-19.5 0.8818,-8.59102 0.976,-36.08722 0.3724,-108.70008 -0.5186,-62.3844 -1.1662,-97.55385 -1.808,-98.18776 -0.6235,-0.61584 -27.7304,-1.29348 -72,-1.79992 l -70.99999,-0.81224 v -38.5 -38.5 h 120.49999 120.5 l 0.3063,140.5 c 0.2151,98.6794 -0.03,144.22069 -0.8232,153 -0.6212,6.875 -2.2106,17.9457 -3.532,24.60155 -1.3214,6.65586 -3.8152,16.10586 -5.5418,21 -1.7266,4.89415 -4.722,12.04845 -6.6564,15.89845 -1.9344,3.85 -5.7408,10.47168 -8.4587,14.71485 -3.108,4.85215 -8.757,11.34574 -15.2239,17.5 -5.9226,5.63619 -13.676,11.82145 -18.2862,14.58768 -4.4021,2.6414 -12.0478,6.54597 -16.9903,8.67683 -4.9426,2.13087 -13.2182,5.02262 -18.3902,6.42612 -5.172,1.40351 -13.0036,3.29476 -17.4036,4.20279 -5.9073,1.21909 -14.8014,1.7363 -34,1.97716 z m 392.2932,-1.72169 c -8.4113,-0.075 -19.1182,-0.49823 -23.7932,-0.94063 -4.675,-0.4424 -12.775,-1.55954 -18,-2.48252 -5.225,-0.92299 -14.7696,-3.20072 -21.2103,-5.06163 -6.4406,-1.86091 -15.8906,-5.22175 -21,-7.46852 -5.1093,-2.24677 -13.6355,-6.5227 -18.9471,-9.50206 -5.3115,-2.97936 -13.6365,-8.50314 -18.5,-12.27507 -4.8634,-3.77193 -12.9101,-11.08249 -17.8815,-16.24568 -4.9714,-5.1632 -12.034,-13.89301 -15.6946,-19.39958 -3.6607,-5.50657 -9.1425,-15.18345 -12.1819,-21.50417 -3.2804,-6.82203 -6.7665,-16.16387 -8.5784,-22.98805 -1.6788,-6.32271 -3.7169,-16.41722 -4.5293,-22.43225 -0.8123,-6.01503 -1.4748,-17.26503 -1.4723,-25 0,-8.75903 0.7362,-18.96697 1.9442,-27.06358 1.0668,-7.15 3.5722,-18.175 5.5675,-24.5 1.9954,-6.325 6.2921,-16.9 9.5482,-23.5 3.256,-6.6 8.9611,-16.2608 12.6778,-21.46843 3.7167,-5.20764 11.4827,-14.20764 17.2577,-20 5.775,-5.79237 14.4498,-13.31185 19.2773,-16.70997 4.8275,-3.39812 13.656,-8.67396 19.619,-11.72408 5.9629,-3.05012 14.3881,-6.91364 18.7227,-8.58559 4.3346,-1.67195 14.181,-4.69704 21.881,-6.72241 l 14,-3.6825 27.3941,-0.37625 c 26.7302,-0.36713 27.6875,-0.31133 39.5,2.30256 6.6583,1.47335 17.2902,4.37474 23.6266,6.44754 6.3364,2.0728 15.7864,5.90713 21,8.52073 5.2136,2.6136 12.8543,7.006 16.9793,9.7609 4.125,2.75489 9.75,6.78068 12.5,8.94618 2.75,2.16551 9.0834,8.29195 14.0742,13.61431 4.9908,5.32235 11.8934,13.88182 15.339,19.02104 3.4457,5.13922 8.0381,13.20055 10.2055,17.91407 2.1673,4.71352 5.3085,12.43371 6.9804,17.15597 1.6718,4.72226 3.9183,12.26892 4.9922,16.77035 1.0739,4.50143 2.7576,14.17643 3.7415,21.5 1.3697,10.19593 1.6575,16.98149 1.228,28.96276 -0.4833,13.48534 -0.8235,15.93714 -2.4621,17.74593 l -1.9013,2.09876 -118.4897,0.25406 c -109.2901,0.23434 -118.5713,0.38335 -119.5401,1.91913 -0.7912,1.25437 -0.387,3.35558 1.6388,8.5188 1.4789,3.76955 4.3775,9.77027 6.4413,13.33494 2.0638,3.56466 6.4464,9.12204 9.7392,12.34974 3.2928,3.22769 8.7647,7.8507 12.1598,10.27335 3.395,2.42266 9.4759,5.9293 13.513,7.79255 4.0372,1.86325 10.2573,4.14215 13.8226,5.06422 3.5653,0.92207 10.0903,2.31146 14.5,3.08755 4.4097,0.77608 12.2927,1.40656 17.5177,1.40107 5.225,-0.005 14.9,-0.84768 21.5,-1.87151 7.2977,-1.13206 15.5724,-3.20868 21.1164,-5.29936 5.014,-1.89081 12.4567,-5.34903 16.5393,-7.68493 4.0826,-2.33589 10.057,-6.49477 13.2763,-9.24194 4.3023,-3.67125 6.5347,-4.91465 8.4247,-4.6922 1.9054,0.22427 8.4729,6.7113 25.3573,25.04661 16.4121,17.82231 22.786,25.41026 22.786,27.12593 0,1.73771 -2.3667,4.47698 -8.75,10.12742 -4.8125,4.25998 -11.829,9.9204 -15.5922,12.57871 -3.7633,2.6583 -11.1883,7.05805 -16.5,9.7772 -5.3118,2.71916 -13.4991,6.29296 -18.194,7.94178 -4.6949,1.64882 -13.2449,4.14669 -19,5.55082 -5.7551,1.40413 -16.8569,3.25074 -24.6706,4.10358 -7.8137,0.85283 -21.0887,1.48929 -29.5,1.41435 z m -10.0618,-193.86374 c 68.7687,0 76.3917,-0.15714 76.94,-1.58608 0.3348,-0.87234 -0.1615,-4.35984 -1.1029,-7.75 -0.9413,-3.39016 -3.4156,-9.76392 -5.4983,-14.16392 -2.0828,-4.4 -5.9881,-10.75747 -8.6785,-14.1277 -2.6904,-3.37024 -8.0417,-8.49928 -11.8917,-11.39788 -3.85,-2.8986 -10.1641,-6.78187 -14.0313,-8.62948 -3.8673,-1.84762 -11.5173,-4.47575 -17,-5.8403 -6.9168,-1.72144 -12.724,-2.48009 -18.9687,-2.47803 -4.95,0.002 -11.925,0.68233 -15.5,1.51269 -3.575,0.83036 -10.0018,2.66541 -14.2817,4.0779 -4.617,1.52373 -11.396,4.94142 -16.6689,8.40378 -6.018,3.95166 -10.6817,8.01125 -14.4458,12.57469 -3.0573,3.70648 -7.3474,10.37625 -9.5335,14.8217 -2.1862,4.44544 -4.8543,11.29711 -5.9292,15.22591 -1.4285,5.2214 -1.6566,7.44104 -0.8476,8.25 0.7896,0.78963 22.9769,1.10672 77.4381,1.10672 z M 2546.514,847.5645 c -11.275,0.15773 -22.525,0.10507 -25,-0.11702 -2.475,-0.22209 -9.45,-1.09879 -15.5,-1.94822 -6.05,-0.84944 -15.3391,-2.63855 -20.6425,-3.9758 -5.3034,-1.33726 -13.6268,-3.83763 -18.4964,-5.55639 -4.8696,-1.71876 -13.8055,-5.60759 -19.8575,-8.64184 -6.052,-3.03425 -14.6036,-7.90855 -19.0036,-10.83178 -4.4,-2.92322 -10.5568,-7.34627 -13.6817,-9.829 -3.125,-2.48273 -9.8007,-9.14408 -14.8349,-14.80301 -5.0342,-5.65893 -11.8194,-14.26261 -15.0781,-19.1193 -3.2588,-4.85668 -7.7349,-12.62225 -9.9469,-17.25682 -2.212,-4.63457 -5.3723,-12.55916 -7.0229,-17.61019 -1.6506,-5.05104 -4.1113,-14.667 -5.4683,-21.36882 -2.1698,-10.71644 -2.4672,-14.78353 -2.4672,-33.74334 0,-19.22021 0.2801,-22.94116 2.5824,-34.31004 1.4203,-7.01351 4.3416,-17.68337 6.4917,-23.71081 2.1501,-6.02744 6.2248,-15.28138 9.0548,-20.56431 2.83,-5.28293 7.9729,-13.65533 11.4286,-18.60533 3.4557,-4.95 10.9315,-13.5605 16.6128,-19.13444 5.6813,-5.57395 13.7047,-12.56793 17.8297,-15.54219 4.125,-2.97425 9.7532,-6.828 12.507,-8.56388 2.7539,-1.73587 9.2789,-5.16868 14.5,-7.62845 5.2212,-2.45978 14.218,-6.04288 19.993,-7.96245 5.775,-1.91956 16.0197,-4.65527 22.7659,-6.07935 11.3283,-2.39131 14.1857,-2.58924 37.3796,-2.58924 23.3874,0 25.9082,0.17819 36.6722,2.59236 6.3572,1.4258 17.6614,4.70303 25.1204,7.28273 7.4591,2.57969 17.4393,6.80392 22.1783,9.38717 4.739,2.58325 12.164,7.23523 16.5,10.33774 4.336,3.10251 10.5931,7.83168 13.9046,10.50927 3.3116,2.67759 8.8954,8.28606 12.4085,12.46325 3.5131,4.17719 8.8325,11.24781 11.8209,15.71248 2.9884,4.46468 7.5849,12.41451 10.2145,17.6663 2.6295,5.25178 6.0032,12.9237 7.497,17.0487 1.4938,4.125 4.2493,14.025 6.1232,22 3.38,14.38396 3.4073,14.69283 3.4111,38.59501 0,22.07569 -0.1495,24.23371 -1.8249,25.75 -1.68,1.52038 -11.4646,1.65499 -120.3,1.65499 -85.6438,0 -118.7796,0.30831 -119.5839,1.11265 -0.8169,0.81686 -0.7112,2.47835 0.3975,6.25 0.8306,2.82554 3.3561,8.73735 5.6122,13.13735 3.1981,6.23689 6.2403,10.13327 13.8036,17.67959 8.3529,8.33398 11.0011,10.30436 19.0504,14.17388 5.1419,2.47186 11.5743,5.22806 14.2943,6.12488 2.72,0.89683 10.37,2.55914 17,3.69404 9.6437,1.65076 14.5546,1.95101 24.5546,1.50127 7.9315,-0.3567 16.3376,-1.46055 23,-3.02025 5.775,-1.35194 13.6445,-3.64713 17.4877,-5.10042 3.8433,-1.45328 10.2473,-4.67387 14.2311,-7.15687 3.9838,-2.48299 9.6964,-6.51289 12.6948,-8.95533 2.9983,-2.44243 6.2694,-4.4339 7.269,-4.42548 0.9996,0.008 2.2936,0.34592 2.8757,0.75 0.582,0.40408 7.557,7.72413 15.5,16.26677 7.9429,8.54265 18.1542,19.67631 22.6917,24.74148 4.5375,5.06517 8.25,9.67329 8.25,10.24026 0,0.56698 -1.9125,3.10747 -4.25,5.64553 -2.3375,2.53807 -7.6145,7.36552 -11.7268,10.72766 -4.1122,3.36214 -12.2122,8.93296 -18,12.37958 -5.7877,3.44663 -15.0457,8.03722 -20.5733,10.20132 -5.5276,2.16409 -14.3755,5.05854 -19.662,6.4321 -5.2866,1.37357 -14.714,3.24166 -20.9499,4.15132 -6.7882,0.99022 -19.5644,1.769 -31.838,1.94069 z m -15.6224,-193.73581 76.1224,-0.25621 0.2856,-3 c 0.1571,-1.65 -0.8471,-6.31691 -2.2316,-10.37091 -1.3844,-4.054 -4.1673,-10.32174 -6.1842,-13.9283 -2.0169,-3.60656 -7.3127,-10.35478 -11.7684,-14.99605 -7.0073,-7.29899 -9.5217,-9.151 -18.6183,-13.71315 -7.7725,-3.89809 -13.1722,-5.82473 -20.6923,-7.38304 -5.5965,-1.1597 -13.4639,-2.10447 -17.4831,-2.09949 -4.1041,0.005 -12.13,1.09233 -18.3077,2.48008 -7.2619,1.63131 -14.0714,3.98606 -20.038,6.92924 -5.8461,2.88371 -11.3966,6.61937 -15.7162,10.57754 -3.673,3.36562 -8.9005,9.44193 -11.6166,13.5029 -2.7162,4.06096 -6.2817,10.89754 -7.9235,15.19238 -1.6418,4.29484 -3.2995,9.28973 -3.6838,11.09976 -0.4429,2.08587 -0.2535,3.82751 0.5173,4.75621 1.052,1.26769 11.4801,1.43071 77.3384,1.20904 z m 381.1285,194.09396 c -7.7033,-0.0824 -15.3561,-0.30721 -17.0061,-0.49957 -1.65,-0.19235 -7.2286,-0.84078 -12.3968,-1.44095 -5.1683,-0.60017 -14.7576,-2.40025 -21.3095,-4.00018 -6.552,-1.59992 -17.9271,-5.37319 -25.2781,-8.38503 -7.351,-3.01183 -17.5618,-8.00765 -22.6905,-11.10182 -5.1288,-3.09416 -11.8001,-7.46116 -14.8251,-9.70444 -3.025,-2.24327 -9.7137,-7.92502 -14.8638,-12.62609 -5.1502,-4.70108 -12.8918,-13.24604 -17.2037,-18.98881 -4.3119,-5.74277 -10.7418,-16.10282 -14.2888,-23.02234 -3.547,-6.91952 -7.8215,-17.08094 -9.4989,-22.58094 -1.6774,-5.5 -3.5522,-12.25 -4.1663,-15 -0.614,-2.75 -1.9625,-10.8223 -2.9965,-17.93845 -1.6092,-11.07405 -1.7404,-14.96469 -0.9111,-27 0.533,-7.73385 1.6451,-18.11155 2.4714,-23.06155 0.8263,-4.95 2.6102,-12.88511 3.9643,-17.63358 1.3541,-4.74847 4.0493,-12.39847 5.9893,-17 1.9401,-4.60153 5.5999,-11.96642 8.1329,-16.36642 2.5331,-4.4 6.4298,-10.475 8.6593,-13.5 2.2296,-3.025 7.0143,-9.04532 10.6328,-13.3785 3.6185,-4.33317 11.3041,-11.67698 17.0791,-16.31957 5.775,-4.64259 14.1997,-10.68226 18.7216,-13.42149 4.5219,-2.73923 12.3969,-6.94722 17.5,-9.35107 5.1031,-2.40386 14.0034,-5.93688 19.7784,-7.85115 5.775,-1.91428 15.675,-4.72639 22,-6.24913 10.9011,-2.62444 13.0023,-2.78945 40.3456,-3.16823 28.1435,-0.38988 29.1536,-0.33506 41.4944,2.25189 6.9569,1.45832 16.9263,4.01788 22.1544,5.68793 5.2281,1.67004 13.7472,5.01432 18.9313,7.43174 5.1842,2.41742 13.9592,7.40677 19.5,11.08744 6.2927,4.18011 13.5856,10.27468 19.4285,16.23614 5.1448,5.2492 11.7345,13.144 14.6438,17.544 2.9092,4.4 6.5748,10.64514 8.1458,13.87809 l 2.8562,5.8781 -3.0567,2.4748 c -1.6811,1.36114 -17.2061,10.07358 -34.5,19.36099 -17.2938,9.28741 -32.2401,16.89111 -33.2139,16.89711 -1.0052,0.006 -3.1494,-2.04256 -4.9599,-4.73909 -1.7541,-2.6125 -7.7073,-9.25704 -13.2294,-14.76565 -7.2506,-7.23298 -11.9953,-11.03726 -17.0773,-13.69272 -3.8705,-2.02239 -11.0705,-4.86178 -16,-6.30977 -5.5156,-1.62013 -12.6431,-2.84808 -18.5318,-3.19272 -7.609,-0.44531 -11.8081,-0.10317 -20.5,1.67034 -6.1234,1.24941 -14.1594,3.71769 -18.2713,5.61208 -4.0371,1.85995 -10.1121,5.39804 -13.5,7.86244 -3.3878,2.46439 -8.6631,6.8624 -11.7229,9.77336 -3.0597,2.91095 -7.528,8.60484 -9.9296,12.65308 -2.4015,4.04825 -6.0828,12.37325 -8.1806,18.5 l -3.8142,11.13956 -0.01,21.04053 c -0.01,20.76082 0.035,21.16629 3.0586,30.5 1.6856,5.20271 4.9441,13.05947 7.241,17.45947 3.1156,5.96828 6.4642,10.29625 13.1852,17.0416 7.6505,7.67817 10.4416,9.73788 18.509,13.65903 5.225,2.53959 12.65,5.60893 16.5,6.82075 5.2192,1.64279 10.4429,2.32929 20.5334,2.6985 11.7763,0.43089 14.6326,0.2079 22,-1.71755 4.6566,-1.21701 12.6717,-4.22115 17.8112,-6.67587 7.4791,-3.5721 11.0214,-6.07289 17.7434,-12.52627 4.6194,-4.43473 10.2087,-10.92898 12.4209,-14.43166 3.6098,-5.7157 4.3588,-6.36853 7.3066,-6.36853 1.8065,0 3.712,0.40023 4.2345,0.8894 0.5225,0.48917 14,7.98381 29.95,16.65475 15.95,8.67095 30.2375,16.62636 31.75,17.6787 1.9332,1.34506 2.75,2.77891 2.75,4.82763 0,1.65937 -1.782,5.8285 -4.1384,9.68191 -2.2761,3.72218 -6.1951,9.46761 -8.7089,12.76761 -2.5139,3.3 -8.3298,9.68265 -12.9244,14.18367 -4.5945,4.50102 -12.263,10.8558 -17.041,14.12174 -4.778,3.26594 -12.0502,7.62699 -16.1603,9.69123 -4.1102,2.06423 -11.3142,5.23661 -16.009,7.04971 -4.6947,1.81311 -13.1174,4.45793 -18.7171,5.87738 -5.5997,1.41945 -15.9429,3.25479 -22.9849,4.07854 -7.0421,0.82375 -19.1065,1.4303 -26.8099,1.3479 z m -723.2837,-5.09036 c -37.2921,0.20493 -47.3775,-0.006 -47.7505,-1 -0.26,-0.6929 -0.5851,-76.27484 -0.7224,-167.95988 -0.1638,-109.48642 -0.5927,-167.03444 -1.2495,-167.6743 -0.6104,-0.59467 -26.5177,-1.2959 -66.5,-1.79992 l -65.5,-0.82571 v -38.5 -38.5 h 181 181 v 38.5 38.5 l -65,0.82363 c -35.75,0.453 -65.3402,1.15318 -65.7559,1.55596 -0.4158,0.40277 -1.0908,76.30714 -1.5,168.67636 l -0.7441,167.94405 z m 965.6238,0.24019 c -35.0072,0 -45.0137,-0.27561 -45.3839,-1.25 -0.2613,-0.6875 -0.3596,-100.025 -0.2186,-220.75 l 0.2563,-219.5 44.885,-0.26039 c 32.3079,-0.18743 45.2675,0.057 46.25,0.87244 1.1308,0.93844 1.365,13.80009 1.365,74.95138 0,47.97444 0.349,74.03421 0.9968,74.43458 0.5482,0.33882 2.9107,-0.77772 5.25,-2.4812 2.3393,-1.70348 7.8532,-5.49944 12.2532,-8.43546 4.4,-2.93603 10.8016,-6.74392 14.2258,-8.46199 3.4243,-1.71807 9.7243,-4.27014 14,-5.67128 4.2758,-1.40113 12.9492,-3.87175 19.2742,-5.49026 11.1564,-2.85483 12.217,-2.94289 35.5,-2.94759 23.2023,-0.005 24.3822,0.0918 35.5,2.90291 6.325,1.59927 15.0142,4.30402 19.3094,6.01057 4.2952,1.70654 10.1452,4.28532 13,5.73062 2.8548,1.4453 8.5656,4.88966 12.6906,7.65414 4.125,2.76447 11.2746,8.66349 15.8879,13.10892 4.6134,4.44544 10.2943,11.00761 12.6242,14.58261 2.33,3.575 6.1215,10.25931 8.4256,14.85402 2.3041,4.59471 5.5221,12.43263 7.1511,17.41759 1.629,4.98497 4.1802,15.17566 5.6694,22.64599 l 2.7076,13.5824 0.308,101 c 0.1694,55.55 0.055,102.01703 -0.2545,103.26007 l -0.5625,2.26008 -45.7284,-0.26008 -45.7284,-0.26007 -0.7305,-89.5 c -0.4665,-57.144 -1.1358,-92.2114 -1.8515,-97 -0.6165,-4.125 -2.2531,-11.1 -3.6369,-15.5 -1.3839,-4.4 -3.7668,-10.475 -5.2954,-13.5 -1.634,-3.23359 -5.6033,-8.20988 -9.6325,-12.07619 -4.4947,-4.31303 -9.2367,-7.69659 -13.7791,-9.83183 -3.8092,-1.7906 -10.2613,-3.89382 -14.3379,-4.67381 -4.0767,-0.77999 -11.4488,-1.41817 -16.3826,-1.41817 -4.9338,0 -12.2067,0.49536 -16.162,1.1008 -3.9554,0.60544 -10.6724,2.43557 -14.9267,4.06694 -4.2543,1.63138 -10.1043,4.58495 -13,6.5635 -2.8957,1.97854 -7.2787,5.35679 -9.7399,7.50722 -2.4613,2.15042 -5.7485,5.78899 -7.3049,8.0857 -1.5564,2.29671 -4.1107,6.66249 -5.6762,9.70173 -1.5655,3.03924 -4.2059,10.01424 -5.8676,15.5 l -3.0211,9.97411 -0.6672,89.5 c -0.4407,59.11696 -1.0178,89.92434 -1.7,90.75 -0.7983,0.96611 -11.2322,1.25 -45.9418,1.25 z M 724.306,335.46758 c -4.01059,0.26736 -9.61098,0.0728 -12.44531,-0.43235 -2.83432,-0.50516 -7.62494,-1.84323 -10.64582,-2.97348 -3.02088,-1.13026 -8.12688,-3.76116 -11.34668,-5.84645 -3.2198,-2.0853 -8.11264,-6.26793 -10.87297,-9.29474 -2.76034,-3.02681 -6.4588,-8.20503 -8.21881,-11.50714 -1.76001,-3.30212 -3.88905,-8.64924 -4.73121,-11.88249 -0.84216,-3.23326 -1.52585,-9.9466 -1.51932,-14.91855 0.007,-4.97195 0.66957,-11.5115 1.47344,-14.53234 0.80386,-3.02084 2.93494,-8.42084 4.73572,-12 2.0724,-4.119 5.84434,-9.07775 10.27656,-13.50997 4.49817,-4.49817 9.32697,-8.15742 13.50241,-10.23209 3.575,-1.77632 9.18204,-3.91274 12.4601,-4.74759 3.27805,-0.83485 9.59601,-1.51791 14.0399,-1.51791 4.44389,0 10.76184,0.68306 14.0399,1.51791 3.27805,0.83485 8.8851,2.97127 12.4601,4.74759 4.15839,2.0662 9.03004,5.75229 13.52307,10.23209 5.05072,5.03586 8.04074,9.1087 10.64673,14.50241 1.99302,4.125 4.17867,9.9194 4.85701,12.87644 0.67833,2.95705 1.19335,9.03205 1.14449,13.5 -0.0489,4.46796 -0.79644,10.7869 -1.66127,14.0421 -0.86483,3.2552 -3.02088,8.64317 -4.79122,11.97327 -1.77035,3.33009 -5.75376,8.76675 -8.85204,12.08145 -3.09827,3.31471 -8.49827,7.72615 -12,9.80321 -3.50172,2.07707 -9.16037,4.64409 -12.57478,5.7045 -3.4144,1.06041 -9.4894,2.14677 -13.5,2.41413 z"
         id="path24" />
    </g>
  </g>
</svg>
